<?xml version="1.0" encoding="UTF-8"?><svg id="Capa_1" xmlns="http://www.w3.org/2000/svg" viewBox="0 0 433.45 410.6"><defs><style>.cls-1{fill:#fff;}</style></defs><g id="DV_2"><path class="cls-1" d="M414.11,410.49c2.98-7,6.85-14.3,9.21-22.06,3.59-11.81,1.2-23.36-3.69-34.51-18.55-42.22-37.12-84.42-55.46-126.73-3.88-8.95-6.42-18.49-10.32-27.43-3.38-7.75-7.05-15.59-11.96-22.4-5.97-8.29-12.66-16.35-20.3-23.07-15.98-14.06-34.87-19.74-55.92-14.39-7.65,1.95-14.81,5.85-22.14,8.98-1.92,.82-3.66,2.05-5.73,3.23,4.32-22.2,22.01-37.42,44.15-34.35,11.29,1.56,20.79,8.05,29.19,15.61,4.86,4.38,9.93,4.2,15.18,1.94,5.4-2.33,9.31-6.83,8.84-12.69-.7-8.8-2.3-17.6-4.38-26.19-4.36-18-12.65-34.36-23.56-49.17-9.05-12.29-21.52-20.66-35.5-26.76-18.31-7.99-37.52-11.92-57.4-11.59-20.83,.35-41.07,4.32-60.35,12.55-9.6,4.1-18.91,8.56-26.77,15.71-13.03,11.87-22.06,26.09-26.2,43.27-3.45,14.32-3.57,28.72,.02,43.03,.76,3.02,2.06,6.02,3.68,8.69,2.55,4.2,4.5,4.59,8.88,2.26,5.05-2.68,9.95-5.66,15.03-8.28,4.84-2.5,9.7-5.06,14.8-6.93,7.27-2.67,14.61-2.79,21.78,.93,11.38,5.9,21,13.76,28.21,24.44,.17,.25,.53,.38,.14,.11,0-9.52-.29-19.39,.06-29.23,.8-22.85,1.76-45.7,3-68.53,.28-5.14,1.87-10.24,3.07-15.3,.3-1.28,1.45-2.36,2.76-4.4-5.83,43.06-3.42,85.14-3.94,127.95-7.92-3.69-16.03-6.74-23.39-11.05-14.9-8.74-30.07-10.11-45.85-3.32-11.61,5-20.18,14.07-28.72,22.93-5.71,5.93-11.06,12.34-15.66,19.15-3.42,5.07-5.95,10.93-7.88,16.76-18.2,55.11-40.08,108.7-65.92,160.68-7.53,15.15-5.94,29.73,3.92,43.44,1.12,1.56,2.23,3.12,3.34,4.69-.44,.37-.88,.74-1.32,1.12-3.14-3.41-6.72-6.53-9.34-10.3-9.69-13.9-9.58-28.7-3.3-43.9,1.93-4.68,3.9-9.37,5.46-14.18,15-46.19,32.1-91.57,50.9-136.36,3.4-8.11,4.1-17.52,5.06-26.44,1.68-15.66,2.06-31.47,3.96-47.09,3.25-26.84,12.57-51.6,28.79-73.35C118.27,31.52,143.96,13.33,176.07,5.27,187.69,2.35,199.81,.37,211.75,.05c18.73-.5,37.08,2.76,54.73,9.7,13.58,5.34,26.36,12.07,37.86,20.91,13.07,10.05,24.01,22.25,33.01,36.14,7.65,11.82,14.1,24.31,17.3,37.97,2.8,11.95,4.24,24.26,5.63,36.48,1.58,13.87,2.1,27.87,3.68,41.74,1.68,14.73,8.58,27.79,14.13,41.29,16.16,39.23,31.98,78.6,48.24,117.79,3.68,8.88,7.28,17.56,7.11,27.39-.26,16.09-7.25,29.06-18.2,40.28-.26,.27-.6,.47-.94,.65-.33,.18-.69,.29-.19,.09Z"/><path class="cls-1" d="M234.5,238.39c-.34,4.69,1.18,9.46,4.8,13.9,16.46,20.18,32.67,40.58,49.1,60.78,1.35,1.66,3.77,2.42,5.54,3.78,1.45,1.12,3.81,2.56,3.76,3.78-.09,2.26-1.06,5.76-2.67,6.49-25.3,11.36-43.55,32.24-65.47,48.13-3.39,2.46-6.68,5.07-9.87,7.78-2.97,2.52-5.57,2.23-8.48-.15-19.98-16.32-39.94-32.66-60.09-48.77-2.85-2.28-6.55-3.7-10.07-4.9-3.1-1.06-5.32-2.53-5.58-5.87-.27-3.46,.44-6.88,4.06-8.25,3.56-1.35,5.81-3.83,7.97-6.72,14.7-19.61,29.4-39.24,44.28-58.72,2.65-3.47,4.09-6.99,3.47-11.25-2.12-14.48,10.3-22.5,23.17-20.5,.63,.1,1.24,.26,1.87,.38,10.89,2.08,14.5,6.96,14.2,20.1Zm-18.85,83.79v-.53c19.2,0,38.4-.18,57.59,.13,4.71,.07,5.82-3.04,7.74-5.89,1.9-2.83-.33-4.45-1.74-6.25-13.96-17.81-27.81-35.7-42.02-53.31-4.29-5.32-6.79-10.75-6.54-17.66,.12-3.2-.4-6.76-1.77-9.61-2.75-5.7-12.76-9.07-19.6-6.46-8.82,3.37-10.68,5.98-10.35,14.62,.07,1.78,.33,3.62-.02,5.32-.43,2.13-.95,4.47-2.19,6.17-14.01,19.19-27.99,38.41-42.41,57.29-3.72,4.87-4.42,9.11-1.2,14.02,.67,1.02,2.23,2.06,3.38,2.07,19.71,.13,39.42,.09,59.13,.09Zm-.14,4.38v-.46c-19.06,0-38.11-.04-57.17,.07-1.49,0-2.97,1.05-4.45,1.62,.77,1.42,1.2,3.23,2.35,4.19,18.06,15.07,36.19,30.03,54.34,44.99,3.86,3.19,6.02,3.07,10.11-.14,8.2-6.43,16.43-12.83,24.64-19.24,10.31-8.05,20.64-16.09,30.93-24.16,2.65-2.08,3.1-4.96,.86-6.25-1.1-.63-2.68-.6-4.04-.6-19.19-.03-38.38-.02-57.57-.02Z"/><path class="cls-1" d="M228.28,149.94c.56-1.48,1.61-2.97,1.59-4.44-.29-20.32-.63-40.65-1.17-60.97-.43-16.13-1.17-32.26-1.75-48.39-.04-1.11,.09-2.23,.98-3.49,.44,2.76,.97,5.5,1.32,8.27,4.1,32.19,6.52,64.49,5.15,96.96-.21,4.98-.64,10.41-2.77,14.75-4.4,8.96-11.96,10.73-23.64,6.52-3.4-1.23-4.99-3.41-5.01-7.43-.11-15.5-.69-31-1.02-46.5-.04-1.68,.38-3.38,.72-6.09,1.51,1.85,2.29,2.9,3.16,3.86,4.6,5.12,9.92,4.17,12.48-2.06,1.24-3.01,2.94-5.83,4.43-8.73l1.7,.33c.56,2.91,1.56,5.81,1.6,8.73,.24,14.74,.22,29.49,.32,44.24,0,1.33,.2,2.66,.31,4l1.6,.43Z"/><path class="cls-1" d="M241.43,222c1.22,0,2.56-.33,3.66,.05,22.25,7.64,45.3,11.1,68.61,13.23,2.92,.27,3.38,1.42,2.43,3.98-6.92,18.69-13.76,37.4-20.63,56.12-5.41-3.51-5.86-4.78-3.96-10.77,4.45-14.03,8.89-28.07,13.32-42.1,.49-1.56,1.45-3.38-1.3-3.73-10.28-1.31-20.57-2.55-31.31-3.87-.69,9.68-1.39,19.36-2.13,29.72-1.14-1.04-1.92-1.57-2.48-2.28-3.54-4.48-6.89-9.13-10.6-13.47-2.33-2.73-3.53-5.51-2.54-9.02,1.75-6.19-.02-10.42-6.43-12.6-2.43-.83-4.57-2.55-6.84-3.86l.2-1.38Z"/><path class="cls-1" d="M136.68,297.77c-7.75-20.72-15.2-40.65-22.84-61.08,25.86-.45,50.12-7.51,74.61-13.24l.35,1.36c-3.37,1.18-6.7,2.48-10.12,3.48-2.31,.68-3.53,1.83-3,4.31,2.15,10.16-1.81,18.15-8.71,25.23-2.11,2.17-3.77,4.78-6.21,7.92-.98-10.68-1.89-20.6-2.82-30.75-12.2,2.07-23.66,4.01-35.72,6.05,1.23,3.51,2.29,6.56,3.37,9.62,4.63,13.17,9.16,26.38,13.95,39.5,1.2,3.28-.72,4.87-2.84,7.61Z"/><path class="cls-1" d="M184.45,158.31c-31.28-7.93-56.23,.94-75.11,26.45-1.78-12.48,12.64-31.62,28.68-37.58,17.15-6.38,36.37-.69,46.42,11.14Z"/><path class="cls-1" d="M246.84,156.81c5.89-9.53,24.48-15.23,38.2-12.08,17.57,4.03,34.33,22.12,35.82,39.79-8.86-12.3-19.27-21.11-32.6-26.21-13.53-5.18-27.26-4.92-41.42-1.5Z"/><path class="cls-1" d="M231.26,217.12c-13.37-6.4-19.76-6.47-32.13-.38-.34-6.73-2.17-13.58,1.89-19.16,4.33-5.95,11.25-6.88,18.24-5.45,2.19,.45,4.37,1.42,6.28,2.6,3.55,2.19,6.28,4.89,5.8,9.77-.4,3.98-.08,8.03-.08,12.63Z"/><path class="cls-1" d="M109.57,208.28c4.32,3.05,8.4,6.52,13.01,9.03,8.03,4.37,16.71,4.82,25.5,2.45,9.67-2.61,19.32-5.31,28.98-7.94,1.2-.33,2.43-.52,3.65-.78l.65,1.16c-3.65,2.25-7.11,4.92-10.99,6.66-8.32,3.73-16.7,7.47-25.35,10.31-15.2,5-33.26-5.99-35.45-20.9Z"/><path class="cls-1" d="M247.7,209.19c8.91,2.48,17.88,4.74,26.7,7.48,12.34,3.83,24.25,4.15,35.36-3.43,3-2.05,5.64-4.63,9.01-7.44-1.76,8.55-6.3,14.41-12.97,18.48-7.92,4.83-16.54,5.79-25.19,2.24-9.84-4.04-19.51-8.48-29.19-12.91-1.62-.74-2.89-2.27-4.32-3.43l.59-1Z"/><path class="cls-1" d="M248.04,244.33c.65,1.1,1.19,2.29,1.98,3.28,9.35,11.71,18.73,23.41,28.13,35.08,4.46,5.54,9.09,10.95,13.39,16.61,.82,1.08,.47,3.04,.66,4.59-1.45-.36-3.43-.23-4.25-1.15-4.63-5.21-9.09-10.6-13.41-16.07-9.21-11.66-18.3-23.42-27.43-35.15-.7-.9-1.73-1.85-1.81-2.84-.1-1.2,.65-2.47,1.03-3.71l1.72-.65Z"/><path class="cls-1" d="M137.6,302.51c.56-.97,1.02-2.01,1.69-2.9,12.72-16.81,25.47-33.6,38.23-50.39,.61-.81,1.22-1.84,2.06-2.19,1.01-.42,2.91-.68,3.3-.16,.66,.87,.88,2.59,.47,3.62-.59,1.47-1.93,2.64-2.94,3.94-12.68,16.21-25.36,32.41-38.04,48.62-.23,.3-.42,.69-.73,.87-.68,.39-1.44,1-2.12,.94-.99-.09-1.93-.68-2.9-1.05,.33-.43,.65-.87,.98-1.3Z"/><path class="cls-1" d="M230.15,173.63c-4.93-.77-10.27-2.59-15.41-2.13-5.12,.45-10.05,3.18-15.31,4.45,2.58-5.07,7.15-7.14,12.38-8.27,6.48-1.39,15.17,1.56,18.35,5.95Z"/><path class="cls-1" d="M230.04,191.01c-10.21-4.35-20.28-4.87-30.47,.45,1.29-3.93,5.97-6.8,11.92-7.51,7.25-.87,13.66,.78,18.56,7.06Z"/><path class="cls-1" d="M230.53,182.89c-10.55-5.08-20.74-4.64-30.6,1.93l-.86-.96c1.06-1.39,1.87-3.09,3.21-4.11,8.08-6.19,21.27-4.85,28.25,3.14Z"/><path class="cls-1" d="M170,304.26q1.24,6.89,9.5,6.38c.29-3.79,.96-7.68,.78-11.54-.23-5.13,1.56-9.09,5.22-12.47,1.57-1.45,2.93-3.11,5-5.32,.39,4.6,.73,8.54,1.05,12.47,.33,4.18,.85,8.36,.88,12.54,.02,3.58,1.3,5.13,4.92,4.45,.73-.14,1.49-.14,2.7-.24,.27-5.85,.56-11.65,.81-17.45,.27-6.48,.69-12.96,.67-19.43-.01-3.59,1.22-5.16,4.81-4.91,1.11,.08,2.23-.15,3.68-.26,.29,5.11,.61,10.03,.82,14.96,.34,7.75,.59,15.49,.92,23.24,.09,2-.12,4.13,3.06,4.17,3.36,.04,2.8-2.31,2.9-4.19,.56-11.3,1.04-22.6,1.56-33.9,.06-1.24,.23-2.48,.39-4.12,2.98,.32,5.69,.61,9.33,.99,0,8.32-.03,16.42,.01,24.53,.02,4.32,.28,8.64,.24,12.96-.02,3.11,1.62,3.8,4.35,3.86,2.74,.07,4.15-.54,4.31-3.69,.42-8.12,1.19-16.21,1.83-24.32,.05-.59,.2-1.17,.37-2.13,4.3,3.13,8.74,5.32,8.71,11.62-.03,5.16,1.2,10.33,1.71,15.51,.21,2.17,1.28,2.77,3.26,2.72,1.93-.05,3.9,.27,4.35-2.44,.23-1.37,.7-2.7,1.3-4.95,3.64,3.98,6.89,7.54,10.78,11.78h-109.21c3.06-3.69,5.82-7,9-10.83Z"/><path class="cls-1" d="M213.45,249.89c-2.66,0-5.33-.14-7.97,.04-2.48,.17-3.62-1.04-3.66-3.25-.05-3.41-.23-6.89,.31-10.23,1.02-6.33,6.92-10.52,13.24-9.89,7.34,.74,11.55,5.02,11.76,11.97,.05,1.78,.06,3.55,.05,5.33-.03,4.53-1.12,5.71-5.76,6.07-1.38,.11-2.78-.03-4.18-.04-1.27-.01-2.53,0-3.8,0Z"/></g></svg>