<svg xmlns="http://www.w3.org/2000/svg" xmlns:xlink="http://www.w3.org/1999/xlink" xmlns:fi="http://pattern.flaticon.com/" x="0" y="0" width="200" height="100" viewBox="0 0 350 175"><rect x="0px" y="0px" width="100%" height="100%" opacity="1" fill="#272727"/><defs><g transform="matrix(0.17333491209987487 -0.10271698181489719 0.10271698181489719 0.17333491209987487 282.578648851459 323.9802640963161)" id="L1_196"><path d="m228.339844 431.464844 6.882812-39.289063s-62.503906-182.152343-62.914062-184.589843c-.8125-4.679688-.933594-9.457032-.359375-14.171876l-75.695313-10.863281-2.128906 12.175781-30.398438-5.320312c-9.6875-1.699219-19.652343.519531-27.699218 6.167969-8.050782 5.652343-13.519532 14.273437-15.207032 23.960937l-20.269531 115.664063c-3.507812 20.160156 9.976563 39.351562 30.132813 42.878906l30.402344 5.328125-3.199219 18.257812c-4.394531-.863281-8.910157.714844-11.808594 4.128907-2.898437 3.410156-3.726563 8.125-2.160156 12.320312 1.566406 4.195313 5.277343 7.214844 9.703125 7.894531l170.398437 29.808594c6.726563 1.175782 13.128907-3.324218 14.304688-10.046875 1.175781-6.726562-3.324219-13.128906-10.046875-14.304687zm-162.96875-72.410156-24.34375-4.253907c-10.082032-1.761719-16.828125-11.367187-15.0625-21.449219l18.097656-103.472656c1.757812-10.082031 11.363281-16.828125 21.445312-15.0625l24.34375 4.253906zm0 0" fill="#e2e2e2"/><path d="m188.019531 204.886719c-4.109375 1.425781-8.140625 2.984375-12.246093 4.152343-1.832032.519532-3.089844.984376-3.496094-1.453124-.863282-4.851563-.976563-9.804688-.335938-14.691407 0-.253906.136719-.496093.175782-.742187l-67.914063-8.199219-36.796875 215.070313c-.691406 4.363281 2.285156 8.460937 6.648438 9.152343l138.664062 22c4.328125.6875 8.40625-2.238281 9.140625-6.558593l7.851563-47.464844-40.507813-166.230469c-.523437-1.644531-.917969-3.328125-1.183594-5.035156zm0 0" fill="#f4c734"/><path d="m173.203125 209.921875 71.617187 210.574219c-6.351562 2.277344-9.707031 9.226562-7.535156 15.617187 2.175782 6.390625 9.074219 9.855469 15.496094 7.78125l163.792969-55.71875c6.351562-2.273437 9.707031-9.226562 7.53125-15.617187-2.171875-6.390625-9.070313-9.851563-15.492188-7.78125l-7.199219-21.082032 24.613282-8.375c19.402344-6.578124 29.789062-27.644531 23.203125-47.039062l-37.800781-111.136719c-6.597657-19.382812-27.65625-29.753906-47.039063-23.160156l-24.617187 8.414063-2.785157-8.160157zm239.066406 104-18.769531 6.398437-45.765625-134.558593 18.765625-6.402344c9.691406-3.296875 20.21875 1.886719 23.511719 11.578125l33.832031 99.460938c3.300781 9.691406-1.882812 20.21875-11.574219 23.511718zm0 0" fill="#e2e2e2"/><path d="m329.84375 156.625-150.175781 51.09375 70.121093 201.640625c1.4375 4.144531 5.945313 6.355469 10.105469 4.960937l133.117188-44.625c4.191406-1.40625 6.445312-5.9375 5.042969-10.128906zm0 0" fill="#f4c734"/><path d="m171.964844 192.894531c2.339844-18.859375 18.773437-32.757812 37.761718-31.933593.722657-1.105469 1.503907-2.175782 2.335938-3.199219-.980469-.320313-1.976562-.585938-2.984375-.800781-8.984375-1.117188-18.09375-.574219-26.882813 1.597656-12.507812-14.378906-32.171874-20.28125-50.53125-15.167969-18.363281 5.113281-32.144531 20.328125-35.417968 39.105469l75.480468 14.777344c.054688-1.433594.039063-2.921876.238282-4.378907zm0 0" fill="#f9f2cc"/><path d="m323.222656 16c0 8.835938-7.164062 16-16 16-8.839844 0-16-7.164062-16-16s7.160156-16 16-16c8.835938 0 16 7.164062 16 16zm0 0" fill="#f9f2cc"/><path d="m267.222656 72c0 17.671875-14.328125 32-32 32-17.675781 0-32-14.328125-32-32s14.324219-32 32-32c17.671875 0 32 14.328125 32 32zm0 0" fill="#f9f2cc"/><path d="m147.222656 80c0 13.253906-10.746094 24-24 24-13.257812 0-24-10.746094-24-24s10.742188-24 24-24c13.253906 0 24 10.746094 24 24zm0 0" fill="#f9f2cc"/><path d="m91.222656 16c0 8.835938-7.164062 16-16 16-8.839844 0-16-7.164062-16-16s7.160156-16 16-16c8.835938 0 16 7.164062 16 16zm0 0" fill="#f9f2cc"/><g fill="#e0b730"><path d="m277.886719 237.503906c-.710938-2.066406-2.242188-3.753906-4.234375-4.65625-1.878906 1.714844-4.089844 3.023438-6.496094 3.847656-1.394531.453126-2.835938.746094-4.296875.863282-.605469 1.640625-.648437 3.433594-.117187 5.097656l46.589843 136.945312c1.425781 4.175782 5.964844 6.410157 10.144531 4.992188 4.179688-1.425781 6.410157-5.964844 4.992188-10.144531zm0 0"/><path d="m226.792969 246.441406c4.179687-1.421875 8.722656.8125 10.148437 4.996094l46.585938 136.941406c1.425781 4.183594-.8125 8.726563-4.992188 10.148438-4.179687 1.421875-8.722656-.816406-10.148437-5l-46.585938-136.9375c-1.425781-4.183594.8125-8.726563 4.992188-10.148438zm0 0"/><path d="m308.683594 218.574219c4.179687-1.421875 8.722656.8125 10.144531 4.996093l46.585937 136.941407c1.421876 4.183593-.8125 8.726562-4.996093 10.148437-4.179688 1.425782-8.722657-.8125-10.144531-4.996094l-46.585938-136.941406c-1.421875-4.183594.816406-8.726562 4.996094-10.148437zm0 0"/><path d="m138.703125 398 24.921875-142.484375c.761719-4.351563 4.910156-7.265625 9.261719-6.503906l.007812.003906c4.351563.761719 7.261719 4.90625 6.5 9.257813l-24.921875 142.484374c-.761718 4.351563-4.90625 7.261719-9.261718 6.5h-.007813c-4.351563-.761718-7.261719-4.90625-6.5-9.257812zm0 0"/><path d="m181.21875 405.507812 12.914062-78.316406c.71875-4.359375 4.832032-7.3125 9.1875-6.59375 4.359376.71875 7.308594 4.835938 6.589844 9.195313l-12.910156 78.316406c-.71875 4.359375-4.835938 7.3125-9.191406 6.59375-4.355469-.71875-7.308594-4.835937-6.589844-9.195313zm0 0"/><path d="m96.097656 390.539062 24.914063-142.476562c.761719-4.351562 4.90625-7.265625 9.257812-6.503906h.007813c4.355468.761718 7.265625 4.90625 6.503906 9.261718l-24.914062 142.476563c-.761719 4.351563-4.90625 7.261719-9.257813 6.503906l-.007813-.003906c-4.355468-.761719-7.265624-4.90625-6.503906-9.257813zm0 0"/></g><path d="m222.726562 445c-.226562 0-.453124-.019531-.671874-.054688l-163.496094-27.496093c-1.050782-.175781-1.984375-.761719-2.597656-1.628907-.617188-.867187-.863282-1.941406-.683594-2.988281.410156-2.152343 2.441406-3.597656 4.609375-3.28125l163.503906 27.503907c2.046875.347656 3.492187 2.207031 3.316406 4.277343-.171875 2.074219-1.902343 3.667969-3.980469 3.667969zm0 0" fill="#cccccc"/><path d="m249.71875 432.503906c-1.964844.011719-3.648438-1.40625-3.96875-3.34375-.324219-1.9375.808594-3.824218 2.671875-4.449218l157.503906-54c2.089844-.714844 4.367188.402343 5.082031 2.492187.71875 2.09375-.398437 4.367187-2.492187 5.085937l-157.496094 54c-.417969.140626-.859375.214844-1.300781.214844zm0 0" fill="#cccccc"/><path d="m171.964844 192.894531c-.636719 4.886719-.523438 9.84375.335937 14.699219.410157 2.398438 1.664063 1.964844 3.496094 1.445312 4.433594-1.261718 8.800781-2.992187 13.230469-4.503906 4.183594-1.421875 8.730468.8125 10.152344 4.992188l5.042968 14.824218c2.949219 9.328126 12.417969 14.960938 22.023438 13.105469 5.113281-1.171875 9.496094-4.453125 12.054687-9.039062 2.554688-4.582031 3.050781-10.035157 1.359375-15.003907l3.640625 10.699219c2.949219 9.320313 12.414063 14.953125 22.015625 13.101563 5.117188-1.167969 9.496094-4.453125 12.054688-9.035156 2.558594-4.582032 3.058594-10.035157 1.371094-15.003907l-9.371094-27.527343c-1.417969-4.183594.820312-8.722657 5-10.144532l62.617187-21.304687c-6.128906-18.046875-22.09375-30.957031-41.023437-33.179688-18.929688-2.222656-37.449219 6.644531-47.59375 22.78125-15.203125-2.941406-30.632813 3.90625-38.644532 17.160157-18.929687-.660157-35.269531 13.160156-37.761718 31.933593zm0 0" fill="#f9f2cc"/></g><g transform="matrix(1 0 0 1 345 82.5)" id="L1_197"/><g transform="matrix(0.078125 0 0 0.078125 198.5 81.5)" id="L1_199"><path d="M286,451.29c-5.52,0-10,4.48-10,10c0,5.52,4.48,10,10,10c5.52,0,10-4.48,10-10S291.52,451.29,286,451.29z"/><path d="M145.5,200.29c-5.523,0-10,4.477-10,10v191c0,5.523,4.477,10,10,10s10-4.477,10-10v-191    C155.5,204.767,151.023,200.29,145.5,200.29z"/><path d="M225.5,200.29c-5.523,0-10,4.477-10,10v191c0,5.523,4.477,10,10,10s10-4.477,10-10v-191    C235.5,204.767,231.023,200.29,225.5,200.29z"/><path d="M426.5,161h-50v-30.259c15.675-11.751,23.125-31.613,18.707-51.224c-4.133-18.39-19.313-33.398-37.768-37.345    c-9.811-2.105-19.692-1.36-28.695,2.063C319.716,30.002,303.862,21,286.5,21c-6.544,0-12.939,1.269-18.852,3.711    C250.91,8.922,228.843,0,206,0c-30.216,0-58.396,15.393-75.03,40.579C78.7,37.687,35.5,79.156,35.5,130.29v120    c0,16.542,13.682,30,30.5,30c3.689,0,7.224-0.671,10.5-1.893V462c0,27.57,22.43,50,50,50h200c27.57,0,50-22.43,50-50v-30h50    c27.57,0,50-22.43,50-50V211C476.5,183.43,454.07,161,426.5,161z M356.5,452h-30.51c-5.523,0-10,4.477-10,10s4.477,9.9,10,9.9    h28.79c-4.128,11.639-15.244,20.1-28.28,20.1h-200c-13.036,0-24.152-8.361-28.28-20h147.79c5.523,0,10-4.477,10-10    s-4.477-10-10-10H96.5V250.07v-70.564c22.463-3.391,41.914-17.538,52.14-38.505c2.086,0,3.924,0.722,5.309,2.081    c11.286,11.098,26.22,17.209,42.051,17.209c16.408,0,31.725-6.495,43.135-18.295c0.61-0.632,1.473-0.995,2.365-0.995    c15.567,0,25.753,3.325,30.277,9.881c3.729,5.405,3.726,12.915,3.723,18.95v40.459c0,13.036,8.361,24.152,20,28.28v162.72    c0,5.523,4.477,10,10,10s10-4.477,10-10V238.57c11.639-4.128,20-15.243,20-28.28v-70.464c7.005,1.398,14.154,1.407,21,0.007V452z     M330.033,116.947c-3.1-1.577-6.796-1.43-9.762,0.389c-2.965,1.818-4.772,5.046-4.772,8.524v84.43c0,5.514-4.486,10-10,10    c-5.514,0-10-4.486-10-10v-40.452c0.003-7.876,0.008-19.779-7.261-30.315C279.759,127.232,264.034,121,241.5,121    c-6.29,0-12.396,2.589-16.749,7.099c-7.602,7.862-17.813,12.191-28.751,12.191c-10.553,0-20.507-4.073-28.035-11.477    c-5.133-5.039-11.996-7.813-19.325-7.813c-7.579,0-14.623,4.397-17.946,11.202c-8.382,17.164-25.35,27.927-44.28,28.089    c-5.489,0.047-9.915,4.51-9.915,10v79.525C76.147,255.705,71.568,260.29,66,260.29c-5.691,0-10.5-4.58-10.5-10v-120    c0-38.596,31.582-69.852,70.407-69.852c3.017,0,6.05,0.192,9.081,0.581c4.045,0.519,7.998-1.471,9.993-5.026    C157.437,33.792,180.818,20,206,20c19.73,0,38.752,8.615,52.187,23.637c3.256,3.642,8.668,4.398,12.799,1.785    C275.559,42.529,280.924,41,286.5,41c12.73,0,24.108,8.061,28.313,20.057c1.023,2.92,3.341,5.203,6.277,6.181    c2.935,0.978,6.159,0.542,8.729-1.182c6.816-4.57,15.134-6.107,23.429-4.327c10.8,2.31,20.03,11.428,22.446,22.179    C381.386,109.172,355.489,129.896,330.033,116.947z M376.5,221h40v151h-40V221z M456.5,382c0,16.542-13.458,30-30,30h-50v-20h50    c5.523,0,10-4.477,10-10V211c0-5.523-4.477-10-10-10h-50v-20h50c16.542,0,30,13.458,30,30V382z"/></g><g transform="matrix(1 0 0 1 82.5 257.5)" id="L1_200"/><g transform="matrix(0.0390625 0 0 0.0390625 340 165)" id="L1_201"><path d="m128 168h-48s-8-24-8-40 8-40 8-40h48s8 24 8 40-8 40-8 40z" fill="#e09f2c"/><path d="m176 216h-144l48-48h48z" fill="#f7b030"/><path d="m32 216h144v32h-144z" fill="#e09f2c"/><path d="m32 424h144a0 0 0 0 1 0 0v48a16 16 0 0 1 -16 16h-112a16 16 0 0 1 -16-16v-48a0 0 0 0 1 0 0z" fill="#f7b030"/><path d="m32 248h144v192h-144z" fill="#bd620e"/><path d="m88 24h32a16 16 0 0 1 16 16v48a0 0 0 0 1 0 0h-64a0 0 0 0 1 0 0v-48a16 16 0 0 1 16-16z" fill="#95573a"/><path d="m136 40v16h-64v-16a16 16 0 0 1 16-16h32a16 16 0 0 1 16 16z" fill="#bd620e"/><path d="m311.731 213.845-15.731-133.845h-48l-15.731 133.845a63.866 63.866 0 0 0 -24.269 50.155v207.508a16.492 16.492 0 0 0 16.492 16.492h95.016a16.492 16.492 0 0 0 16.492-16.492v-207.508a63.866 63.866 0 0 0 -24.269-50.155z" fill="#35a872"/><path d="m448 189.4v-101.4h-48v101.4a56 56 0 0 0 -32 50.6v232a16 16 0 0 0 16 16h80a16 16 0 0 0 16-16v-232a56 56 0 0 0 -32-50.6z" fill="#962523"/><path d="m400 88h48v64h-48z" fill="#c7312e"/><path d="m384 56h80v32h-80z" fill="#a82a27"/><path d="m408 24h32a16 16 0 0 1 16 16v16a0 0 0 0 1 0 0h-64a0 0 0 0 1 0 0v-16a16 16 0 0 1 16-16z" fill="#962523"/><path d="m368 232h112v208h-112z" fill="#a82a27"/><rect x="80px" y="280px" width="48px" height="128px" fill="#f7b030"/><ellipse cx="272px" cy="344px" rx="40px" ry="64px" fill="#e9eef2"/><path d="m312 56h-80l4.97-19.881a16 16 0 0 1 15.522-12.119h39.016a16 16 0 0 1 15.522 12.119z" fill="#e1e3e6"/><path d="m240 56h64a0 0 0 0 1 0 0v16a16 16 0 0 1 -16 16h-32a16 16 0 0 1 -16-16v-16a0 0 0 0 1 0 0z" fill="#2e9163"/><path d="m392 280h64v128h-64z" fill="#c7312e"/></g><g transform="matrix(-0.11395132872586174 0.04967109103123885 0.04967109103123885 0.11395132872586174 188.35357268258454 221.36856394339242)" id="L1_202"><path d="m128 168h-48s-8-24-8-40 8-40 8-40h48s8 24 8 40-8 40-8 40z" fill="#e09f2c"/><path d="m176 216h-144l48-48h48z" fill="#f7b030"/><path d="m32 216h144v32h-144z" fill="#e09f2c"/><path d="m32 424h144a0 0 0 0 1 0 0v48a16 16 0 0 1 -16 16h-112a16 16 0 0 1 -16-16v-48a0 0 0 0 1 0 0z" fill="#f7b030"/><path d="m32 248h144v192h-144z" fill="#bd620e"/><path d="m88 24h32a16 16 0 0 1 16 16v48a0 0 0 0 1 0 0h-64a0 0 0 0 1 0 0v-48a16 16 0 0 1 16-16z" fill="#95573a"/><path d="m136 40v16h-64v-16a16 16 0 0 1 16-16h32a16 16 0 0 1 16 16z" fill="#bd620e"/><path d="m311.731 213.845-15.731-133.845h-48l-15.731 133.845a63.866 63.866 0 0 0 -24.269 50.155v207.508a16.492 16.492 0 0 0 16.492 16.492h95.016a16.492 16.492 0 0 0 16.492-16.492v-207.508a63.866 63.866 0 0 0 -24.269-50.155z" fill="#35a872"/><path d="m448 189.4v-101.4h-48v101.4a56 56 0 0 0 -32 50.6v232a16 16 0 0 0 16 16h80a16 16 0 0 0 16-16v-232a56 56 0 0 0 -32-50.6z" fill="#962523"/><path d="m400 88h48v64h-48z" fill="#c7312e"/><path d="m384 56h80v32h-80z" fill="#a82a27"/><path d="m408 24h32a16 16 0 0 1 16 16v16a0 0 0 0 1 0 0h-64a0 0 0 0 1 0 0v-16a16 16 0 0 1 16-16z" fill="#962523"/><path d="m368 232h112v208h-112z" fill="#a82a27"/><rect x="80px" y="280px" width="48px" height="128px" fill="#f7b030"/><ellipse cx="272px" cy="344px" rx="40px" ry="64px" fill="#e9eef2"/><path d="m312 56h-80l4.97-19.881a16 16 0 0 1 15.522-12.119h39.016a16 16 0 0 1 15.522 12.119z" fill="#e1e3e6"/><path d="m240 56h64a0 0 0 0 1 0 0v16a16 16 0 0 1 -16 16h-32a16 16 0 0 1 -16-16v-16a0 0 0 0 1 0 0z" fill="#2e9163"/><path d="m392 280h64v128h-64z" fill="#c7312e"/></g><g transform="matrix(0.0390625 0 0 0.0390625 165 165)" id="L1_203"><g id="XMLID_1524_"><path d="m324.358 204.099c-16.424-16.424-24.156-39.622-20.872-62.615 2.285-15.995.455-32.308-5.317-47.399l-16.86-44.085h-50.619l-16.86 44.084c-5.772 15.091-7.602 31.405-5.317 47.399 3.285 22.993-4.448 46.191-20.872 62.615-13.839 13.839-21.613 32.608-21.613 52.179v205.723c0 22.091 17.909 40 40 40h99.943c22.091 0 40-17.909 40-40v-205.722c0-19.571-7.774-38.34-21.613-52.179z" id="XMLID_1506_" fill="#d1a184"/><path d="m298.17 94.084-16.861-44.084h-50.619l-16.86 44.084c-5.1 13.335-7.117 27.625-5.942 41.805l48.121 48.121 48.101-48.101c1.178-14.187-.837-28.483-5.94-41.825z" id="XMLID_1513_" fill="#8aa8bd"/><path d="m258.008 10h-21.39c-8.837 0-16 7.163-16 16v24h37.39 33.392v-24c0-8.837-7.163-16-16-16z" id="XMLID_2322_" fill="#e2e9ee"/><path d="m256 256.278c-49.69 0-89.972 40.282-89.972 89.971v25.78c.001 49.689 40.282 89.971 89.972 89.971 49.69 0 89.971-40.282 89.971-89.971v-25.78c0-49.69-40.281-89.971-89.971-89.971z" id="XMLID_1132_" fill="#ffcd69"/><path d="m166.029 327.139h179.943v64h-179.943z" id="XMLID_1502_" fill="#ff7d97"/></g><g id="XMLID_142_"><path d="m331.43 197.027c-14.123-14.122-20.868-34.357-18.044-54.129 2.52-17.633.487-35.748-5.876-52.386l-12.009-31.398c3.475-1.567 5.899-5.054 5.899-9.114v-24c0-14.336-11.663-26-26-26h-38.783c-14.337 0-26 11.664-26 26v24c0 4.054 2.417 7.537 5.884 9.107l-12.011 31.405c-6.363 16.638-8.396 34.753-5.876 52.386 2.824 19.772-3.921 40.007-18.044 54.129-15.826 15.827-24.542 36.869-24.542 59.25v205.723c0 27.57 22.43 50 50 50h99.943c27.57 0 50-22.43 50-50v-205.723c.001-22.381-8.715-43.423-24.541-59.25zm-113.792-65.53c-.462-11.504 1.408-23.055 5.532-33.84l14.402-37.657h36.855l14.402 37.657c4.126 10.791 5.996 22.348 5.531 33.858l-38.353 38.353zm12.979-105.497c0-3.309 2.691-6 6-6h38.783c3.309 0 6 2.691 6 6v14h-.091-50.619-.073zm70.383 311.139h34.438c.341 2.992.534 6.028.534 9.11v25.78c0 3.082-.193 6.118-.534 9.11h-158.875c-.341-2.992-.534-6.028-.534-9.11v-25.78c0-3.082.193-6.118.534-9.11h34.437c5.522 0 10-4.477 10-10s-4.478-10-10-10h-29.463c11.667-29.739 40.635-50.861 74.463-50.861s62.795 21.122 74.463 50.861h-29.463c-5.522 0-10 4.477-10 10s4.478 10 10 10zm29.463 64c-11.668 29.739-40.636 50.861-74.463 50.861s-62.795-21.122-74.463-50.861zm5.509 60.861c0 16.542-13.458 30-30 30h-99.943c-16.542 0-30-13.458-30-30v-30.047c18.254 24.3 47.307 40.047 79.971 40.047s61.717-15.747 79.972-40.047zm-79.972-215.723c-32.664 0-61.717 15.747-79.972 40.047v-30.047c0-17.04 6.636-33.059 18.685-45.108 13.586-13.586 21.966-31.481 24.025-50.288l30.2 30.2c1.953 1.953 4.512 2.929 7.071 2.929s5.118-.976 7.071-2.929l30.184-30.184c2.062 18.801 10.441 36.689 24.023 50.272 12.049 12.049 18.685 28.068 18.685 45.108v30.047c-18.255-24.299-47.308-40.047-79.972-40.047z" id="XMLID_150_"/><path d="m256 317.14c-2.63 0-5.21 1.07-7.07 2.93s-2.93 4.44-2.93 7.07 1.069 5.21 2.93 7.07 4.44 2.93 7.07 2.93 5.21-1.07 7.069-2.93c1.86-1.86 2.931-4.44 2.931-7.07s-1.07-5.21-2.931-7.07c-1.859-1.86-4.439-2.93-7.069-2.93z" id="XMLID_165_"/></g></g><g transform="matrix(0.07103320216393426 0.05031518674167287 -0.05031518674167287 0.07103320216393426 267.69618805190106 255.9348124401646)" id="L1_204"><path d="M366.39,125.45L86.5,126v336c0,22.09,17.91,40,40,40h200c22.09,0,40-17.91,40-40V125.65  L366.39,125.45z" fill="#95e7ee"/><path d="M366.5,462 366.5,125.65 366.39,125.45 86.5,126 86.5,462z" fill="#fec652"/><path d="M466.5,211v171c0,22.09-17.91,40-40,40h-60v-40h60V211h-60v-40h60C448.59,171,466.5,188.91,466.5,211  z" fill="#95e7ee"/><path d="M385.45,81.71c7.61,33.773-27.227,60.794-59.95,44.15v84.43c0,11.04-8.95,20-20,20s-20-8.96-20-20  v-40c0-13.81,0.5-39.29-44-39.29c-3.61,0-7.06,1.46-9.56,4.05c-9.09,9.4-21.83,15.24-35.94,15.24c-13.65,0-26.02-5.47-35.04-14.34  c-3.23-3.17-7.58-4.95-12.32-4.95c-3.81,0-7.29,2.17-8.96,5.59c-9.66,19.78-29.73,33.5-53.18,33.7v79.78  c-0.5,11.26-9.45,20.22-20.5,20.22s-20.5-8.96-20.5-20c0-13.087,0-106.121,0-120c0-47.57,42.01-85.44,90.76-79.19  C149.91,26.77,176.03,10,206,10c23.7,0,44.99,10.59,59.64,26.97c6.04-3.82,13.2-5.97,20.86-5.97c17.45,0,32.29,11.17,37.75,26.75  c8.59-5.76,19.54-8.28,31.09-5.8C370.02,55.09,382.16,67.07,385.45,81.71z" fill="#ffe5cb"/><path d="M286,451.29c-5.52,0-10,4.48-10,10s4.48,10,10,10s10-4.48,10-10C296,455.77,291.52,451.29,286,451.29z"/><path d="M145.5,200.29c-5.523,0-10,4.477-10,10v191c0,5.523,4.477,10,10,10s10-4.477,10-10v-191  C155.5,204.767,151.023,200.29,145.5,200.29z"/><path d="M225.5,200.29c-5.523,0-10,4.477-10,10v191c0,5.523,4.477,10,10,10s10-4.477,10-10v-191  C235.5,204.767,231.023,200.29,225.5,200.29z"/><path d="M126.5,512h200c27.57,0,50-22.43,50-50v-30h50c27.57,0,50-22.43,50-50V211c0-27.57-22.43-50-50-50h-50v-30.259  c15.675-11.751,23.125-31.613,18.707-51.224c-4.133-18.39-19.313-33.398-37.768-37.345c-9.811-2.105-19.692-1.36-28.695,2.063  C319.716,30.002,303.862,21,286.5,21c-6.544,0-12.939,1.269-18.852,3.711C250.91,8.922,228.843,0,206,0  c-30.216,0-58.396,15.393-75.03,40.579C78.7,37.687,35.5,79.156,35.5,130.29v120c0,16.542,13.682,30,30.5,30  c3.689,0,7.224-0.671,10.5-1.893V462C76.5,489.57,98.93,512,126.5,512z M326.5,492h-200c-13.036,0-24.152-8.361-28.28-20h147.79  c5.523,0,10-4.477,10-10s-4.477-10-10-10H96.5V250.07v-70.564c22.463-3.391,41.914-17.538,52.14-38.505  c2.086,0,3.924,0.722,5.309,2.081c11.286,11.098,26.22,17.209,42.051,17.209c16.408,0,31.725-6.495,43.135-18.295  c0.61-0.632,1.473-0.995,2.365-0.995c15.567,0,25.753,3.325,30.277,9.881c3.729,5.405,3.726,12.915,3.723,18.95v40.459  c0,13.036,8.361,24.152,20,28.28v162.72c0,5.523,4.477,10,10,10s10-4.477,10-10V238.57c11.639-4.128,20-15.243,20-28.28v-70.464  c7.005,1.398,14.154,1.407,21,0.007V452h-30.51c-5.523,0-10,4.477-10,10s4.477,9.9,10,9.9h28.79  C350.652,483.539,339.536,492,326.5,492z M376.5,221h40v151h-40V221z M426.5,181c16.542,0,30,13.458,30,30v171  c0,16.542-13.458,30-30,30h-50v-20h50c5.523,0,10-4.477,10-10V211c0-5.523-4.477-10-10-10h-50v-20H426.5z M66,260.29  c-5.691,0-10.5-4.58-10.5-10v-120c0-38.596,31.582-69.852,70.407-69.852c3.017,0,6.05,0.192,9.081,0.581  c4.045,0.519,7.998-1.471,9.993-5.026C157.437,33.792,180.818,20,206,20c19.73,0,38.752,8.615,52.187,23.637  c3.256,3.642,8.668,4.398,12.799,1.785C275.559,42.529,280.924,41,286.5,41c12.73,0,24.108,8.061,28.313,20.057  c1.023,2.92,3.341,5.203,6.277,6.181c2.935,0.978,6.159,0.542,8.729-1.182c6.816-4.57,15.134-6.107,23.429-4.327  c10.8,2.31,20.03,11.428,22.446,22.179c5.692,25.264-20.205,45.988-45.661,33.039c-3.1-1.577-6.796-1.43-9.762,0.389  c-2.965,1.818-4.772,5.046-4.772,8.524v84.43c0,5.514-4.486,10-10,10s-10-4.486-10-10v-40.452  c0.003-7.876,0.008-19.779-7.261-30.315C279.759,127.232,264.034,121,241.5,121c-6.29,0-12.396,2.589-16.749,7.099  c-7.602,7.862-17.813,12.191-28.751,12.191c-10.553,0-20.507-4.073-28.035-11.477c-5.133-5.039-11.996-7.813-19.325-7.813  c-7.579,0-14.623,4.397-17.946,11.202c-8.382,17.164-25.35,27.927-44.28,28.089c-5.489,0.047-9.915,4.51-9.915,10v79.525  C76.147,255.705,71.568,260.29,66,260.29z"/></g><g transform="matrix(0.1171875 0 0 0.1171875 82 279)" id="L1_205"><path d="m126.491 181.9-6.491-77.9h-48l-6.491 77.9a82.016 82.016 0 0 1 -10.521 33.874l-7.968 13.941a114 114 0 0 0 -15.02 56.559v181.726a20 20 0 0 0 20 20h88a20 20 0 0 0 20-20v-181.726a114 114 0 0 0 -15.02-56.559l-7.968-13.943a82.016 82.016 0 0 1 -10.521-33.872z" fill="#7a4922"/><path d="m122.82 137.8-55.48 22.14 4.66-55.94h48z" fill="#7a4922"/><path d="m400 240v48h32a8 8 0 0 1 8 8v96a8 8 0 0 1 -8 8h-32v48h30a50 50 0 0 0 50-50v-108a50 50 0 0 0 -50-50z" fill="#dcdbd6"/><path d="m120 104h-48l-4.66 55.94 55.48-22.14z" fill="#f7a014"/><rect x="56px" y="72px" width="80px" height="32px" fill="#a3612d"/><rect x="32px" y="296px" width="96px" height="128px" fill="#f7a014"/><path d="m400 456h-176l-2.536-35.506a1033.8 1033.8 0 0 1 .418-152.957l2.118-27.537h176l2.118 27.537a1033.8 1033.8 0 0 1 .418 152.957z" fill="#f7a014"/><path d="m312 432a24.027 24.027 0 0 1 -24-24v-120a24 24 0 0 1 48 0v120a24.027 24.027 0 0 1 -24 24zm0-152a8.009 8.009 0 0 0 -8 8v120a8 8 0 0 0 16 0v-120a8.009 8.009 0 0 0 -8-8z" fill="#d78e0c"/><path d="m248 432a8 8 0 0 1 0-16 8.009 8.009 0 0 0 8-8v-120a8.009 8.009 0 0 0 -8-8 8 8 0 0 1 0-16 24.027 24.027 0 0 1 24 24v120a24.027 24.027 0 0 1 -24 24z" fill="#d78e0c"/><path d="m376 432a24.027 24.027 0 0 1 -24-24v-120a24.027 24.027 0 0 1 24-24 8 8 0 0 1 0 16 8.009 8.009 0 0 0 -8 8v120a8.009 8.009 0 0 0 8 8 8 8 0 0 1 0 16z" fill="#d78e0c"/><path d="m400 488h-176a35.778 35.778 0 0 1 0-32h176a35.778 35.778 0 0 1 0 32z" fill="#dcdbd6"/><path d="m164.18 79.17a32 32 0 0 0 -49.335-39.17h-13.022a29.823 29.823 0 0 0 -29.823 29.823v2.177a32 32 0 0 1 25.6 12.8l3.58 4.774a54.093 54.093 0 0 1 10.82 32.459v17.488c0 10.844 8.433 20.081 19.271 20.466a20 20 0 0 0 20.729-19.987v-12a24 24 0 0 0 24-24 31.931 31.931 0 0 0 -11.82-24.83z" fill="#ffc864"/><circle cx="224" cy="119" r="16" fill="#ffc864"/><circle cx="260" cy="60" r="20" fill="#ffc864"/><g fill="#a3612d"><path d="m127.084 273.759a8 8 0 0 1 -7.477-5.151c-.652-1.71-1.378-3.415-2.159-5.066a8 8 0 0 1 14.467-6.835c.955 2.022 1.844 4.107 2.642 6.2a8.006 8.006 0 0 1 -7.473 10.853z"/><path d="m116.277 248a8 8 0 0 1 -7.623-5.581 71.223 71.223 0 0 0 -8.623-17.953l-2.687-4.03a8 8 0 0 1 13.312-8.876l2.688 4.031a87.206 87.206 0 0 1 10.56 21.986 8 8 0 0 1 -7.627 10.423z"/><path d="m82 464h-14.6a8 8 0 1 1 0-16h14.6a8 8 0 0 1 0 16z"/><path d="m160 464h-43.721a8 8 0 0 1 0-16h43.721z"/></g><path d="m372 200h-12a28 28 0 0 0 -35.291-27.035 36 36 0 0 0 -65.272-.323 27.991 27.991 0 0 0 -43.415 22.469 39.4 39.4 0 0 0 -24.022 36.278v8.611a24.006 24.006 0 0 0 16 22.629v16.919c0 8.615 6.621 16.028 15.226 16.434a16 16 0 0 0 16.774-15.982v-10.97a29.03 29.03 0 0 1 29.03-29.03h130.97v-12a28 28 0 0 0 -28-28z" fill="#ffc864"/><path d="m160 140v-5.012a32.058 32.058 0 0 0 24-30.988 39.822 39.822 0 0 0 -10.254-26.743 40.01 40.01 0 0 0 -33.413-53.027 39.667 39.667 0 0 0 -28.333 7.77h-10.178a37.871 37.871 0 0 0 -37.54 33.28 23.992 23.992 0 0 0 -.844 45.135l-5.9 70.818a74.482 74.482 0 0 1 -9.5 30.57l-7.967 13.942a122.21 122.21 0 0 0 -16.071 60.529v181.726a28.032 28.032 0 0 0 28 28h88a28.032 28.032 0 0 0 28-28v-181.726a122.2 122.2 0 0 0 -16.074-60.528l-7.967-13.946a74.473 74.473 0 0 1 -9.5-30.569l-1.106-13.265a28 28 0 0 0 26.647-27.966zm-88-60a24.116 24.116 0 0 1 19.2 9.6l3.58 4.774q.6.8 1.161 1.626h-23.941a8 8 0 0 1 0-16zm30.873 32a45.89 45.89 0 0 1 1.127 10.033v14.667l-27.616 11.025 2.977-35.725zm-62.873 232a40 40 0 0 1 80 0v32a40 40 0 0 1 -80 0zm98.033-110.316a106.159 106.159 0 0 1 13.967 52.59v161.726h-35.721a8 8 0 0 0 0 16h35.721v4a12.013 12.013 0 0 1 -12 12h-88a12.013 12.013 0 0 1 -12-12v-52.862a55.963 55.963 0 0 0 96-39.138v-32a55.963 55.963 0 0 0 -96-39.138v-18.588a106.166 106.166 0 0 1 13.967-52.591l7.967-13.942a90.621 90.621 0 0 0 11.547-37.179l1.419-17.016 32.232-12.864a28.159 28.159 0 0 0 9.806 10.9l1.582 18.981a90.612 90.612 0 0 0 11.547 37.178zm5.967-105.684v12a12 12 0 0 1 -12.445 11.992c-6.371-.227-11.555-5.821-11.555-12.471v-17.488a62.166 62.166 0 0 0 -3.416-20.218 7.974 7.974 0 0 0 -.361-1.018 62.052 62.052 0 0 0 -8.643-16.023l-3.58-4.774a40.206 40.206 0 0 0 -23.448-15.064 21.86 21.86 0 0 1 21.27-16.936h13.024a8 8 0 0 0 5.292-2 24 24 0 0 1 37 29.372 8 8 0 0 0 1.991 10 23.922 23.922 0 0 1 8.871 18.628 16.019 16.019 0 0 1 -16 16 8 8 0 0 0 -8 8z"/><path d="m312 264a24.027 24.027 0 0 0 -24 24v120a24 24 0 0 0 48 0v-120a24.027 24.027 0 0 0 -24-24zm8 144a8 8 0 0 1 -16 0v-120a8 8 0 0 1 16 0z"/><path d="m376 280a8 8 0 0 0 0-16 24.027 24.027 0 0 0 -24 24v120a24.027 24.027 0 0 0 24 24 8 8 0 0 0 0-16 8.009 8.009 0 0 1 -8-8v-120a8.009 8.009 0 0 1 8-8z"/><path d="m430 232h-22v-4a36.04 36.04 0 0 0 -36-36h-4.9a36.064 36.064 0 0 0 -35.1-28q-1.525 0-3.046.129a43.981 43.981 0 0 0 -72.576-1.94 36.02 36.02 0 0 0 -47.857 27.682 47.317 47.317 0 0 0 -24.521 41.518v8.611a32.066 32.066 0 0 0 16 27.713v11.835a24.507 24.507 0 0 0 11.867 21.126 1045.906 1045.906 0 0 0 1.617 120.389l2.39 33.454a44 44 0 0 0 .971 37.061 8 8 0 0 0 7.155 4.422h176a8 8 0 0 0 7.155-4.422 44 44 0 0 0 1.57-35.578h21.275a58.066 58.066 0 0 0 58-58v-108a58.066 58.066 0 0 0 -58-58zm-206.4 55.991a8.328 8.328 0 0 1 -7.6-8.443v-16.919a8 8 0 0 0 -5.334-7.543 16.025 16.025 0 0 1 -10.666-15.086v-8.611a31.356 31.356 0 0 1 19.146-28.913 8 8 0 0 0 4.873-7.115 19.991 19.991 0 0 1 31-16.049 8 8 0 0 0 11.65-3.252 28 28 0 0 1 50.771.251 8 8 0 0 0 9.345 4.379 20 20 0 0 1 25.215 19.31 8 8 0 0 0 8 8h12a20.023 20.023 0 0 1 20 20v4h-122.971a37.071 37.071 0 0 0 -37.029 37.03v10.97a8 8 0 0 1 -8.4 7.991zm171 192.009h-165.195a28.021 28.021 0 0 1 0-16h165.195a28.021 28.021 0 0 1 0 16zm-.038-60.076-2.011 28.076h-161.1l-2.006-28.076a1029.713 1029.713 0 0 1 -1.693-116.236 23.744 23.744 0 0 0 12.814-6.321 24.109 24.109 0 0 0 7.434-17.367 8.009 8.009 0 0 1 8 8v120a8.009 8.009 0 0 1 -8 8 8 8 0 0 0 0 16 24.027 24.027 0 0 0 24-24v-120a24.024 24.024 0 0 0 -23.371-23.984 21.049 21.049 0 0 1 20.4-16.016h123.563l1.55 20.151a1029.3 1029.3 0 0 1 .415 151.773zm77.438-21.924a42.047 42.047 0 0 1 -42 42h-20.837l1.353-18.937q.465-6.524.839-13.063h20.645a16.019 16.019 0 0 0 16-16v-96a16.019 16.019 0 0 0 -16-16h-20.993q-.42-6.544-.912-13.077l-1.456-18.923h21.361a42.047 42.047 0 0 1 42 42zm-60.082-102h20.082v96h-19.82c1.38-31.946 1.292-64.062-.262-96z"/><path d="m121.265 252.891a8 8 0 0 0 -3.817 10.651c.781 1.651 1.507 3.356 2.159 5.066a8 8 0 0 0 14.95-5.7c-.8-2.092-1.687-4.177-2.642-6.2a8 8 0 0 0 -10.65-3.817z"/><path d="m123.9 237.579a87.206 87.206 0 0 0 -10.56-21.986l-2.688-4.031a8 8 0 0 0 -13.312 8.876l2.687 4.03a71.223 71.223 0 0 1 8.623 17.953 8 8 0 1 0 15.25-4.842z"/><path d="m82 448h-14.6a8 8 0 1 0 0 16h14.6a8 8 0 0 0 0-16z"/><path d="m224 143.063a24 24 0 1 0 -24-24 24.027 24.027 0 0 0 24 24zm0-32a8 8 0 1 1 -8 8 8.009 8.009 0 0 1 8-8z"/><path d="m260 88a28 28 0 1 0 -28-28 28.032 28.032 0 0 0 28 28zm0-40a12 12 0 1 1 -12 12 12.013 12.013 0 0 1 12-12z"/></g><g transform="matrix(0.12931033968925476 0 0 0.12931033968925476 167 2.0000000631398507)" id="L1_206"><path d="M323.824,192.017c-1.243,3.53-1.413,7.349-0.488,10.976l4.504,17.696l17.6,36.8l37.08,48.344  l19.752,77.52l36.8-17.6L464,349.401v-104h-17.368l-32-8l-24-8l-28-34.096c-1.371-4.084-3.748-7.757-6.912-10.68l-4.376-2.6  c-9.001-5.333-20.621-2.359-25.955,6.642C324.76,189.73,324.235,190.852,323.824,192.017L323.824,192.017z" fill="#fdc9a6"/><g><path d="M417.512,313.401c0,0-32.984,0.152-34.96-7.6" fill="#f6bb92"/><path d="M416.568,321.401c-38.296,0-40.904-10.24-41.76-13.6c-1.082-4.284,1.514-8.633,5.798-9.715   c3.554-0.898,7.264,0.736,9.002,3.963c9.057,2.588,18.467,3.727,27.88,3.376c4.418-0.011,8.009,3.562,8.02,7.98   c0.011,4.418-3.562,8.009-7.98,8.02L416.568,321.401z" fill="#f6bb92"/></g><path d="M336.632,449.601l46.512-11.848c17.126-4.361,27.475-21.781,23.113-38.907  c0-0.002-0.001-0.003-0.001-0.005l-33.088-129.856c-5.493-21.584-16.523-41.36-32-57.376l-19.248-14.208l-19.752-77.528  l-46.512,11.928l19.744,77.52l-10.096,21.648c-5.925,21.447-6.154,44.069-0.664,65.632l33.08,129.864  c4.365,17.125,21.787,27.469,38.912,23.104" fill="#fbb540"/><path d="M264.64,296.601l33.08,129.864c4.365,17.125,21.787,27.469,38.912,23.104l46.512-11.848  c17.126-4.361,27.475-21.781,23.113-38.907c0-0.002-0.001-0.003-0.001-0.005l-33.088-129.824c-0.736-2.896-1.6-5.76-2.528-8.584  H260.8C260.345,272.59,261.638,284.78,264.64,296.601L264.64,296.601z" fill="#f7ba61"/><path d="M403.848,420.777c-78.824,28.192-88.184-15.376-88.184-15.376l-22.16,4.528l4.216,16.552  c4.365,17.125,21.787,27.469,38.912,23.104l46.512-11.848C392.205,435.407,399.779,429.203,403.848,420.777L403.848,420.777z" fill="#ea9d2d"/><path d="M138.808,192.017c1.239,3.531,1.409,7.349,0.488,10.976l-4.512,17.696l-17.6,36.8l-37.088,48.344  l-19.752,77.52l-36.8-17.6L0,349.401v-104h16l32-8l24-8l28-34.096c1.358-4.089,3.724-7.771,6.88-10.704l4.384-2.6  c8.997-5.34,20.62-2.376,25.96,6.621C137.863,189.699,138.393,190.836,138.808,192.017L138.808,192.017z" fill="#fdc9a6"/><g><path d="M45.112,313.401c0,0,32.984,0.152,34.96-7.6" fill="#f6bb92"/><path d="M46.064,321.401H45.08c-4.418-0.011-7.991-3.602-7.98-8.02c0.011-4.418,3.602-7.991,8.02-7.98h0.52   c9.248,0.315,18.489-0.824,27.384-3.376c2.079-3.898,6.925-5.373,10.824-3.294c3.255,1.736,4.901,5.473,3.984,9.046   C86.968,311.177,84.352,321.401,46.064,321.401z" fill="#f6bb92"/></g><path d="M197.992,296.601l-33.088,129.896c-4.366,17.121-21.781,27.464-38.904,23.104l-46.52-11.848  c-17.125-4.365-27.469-21.787-23.104-38.912l33.08-129.856c5.493-21.584,16.523-41.36,32-57.376l19.256-14.208l19.752-77.528  l46.512,11.928l-19.776,77.48l10.104,21.648C203.241,252.388,203.478,275.023,197.992,296.601L197.992,296.601z" fill="#fbb540"/><path d="M89.456,268.985l-33.08,129.856c-4.365,17.125,5.979,34.547,23.104,38.912L126,449.601  c17.123,4.36,34.538-5.983,38.904-23.104l33.088-129.896c2.993-11.834,4.278-24.034,3.816-36.232H92  C91.056,263.191,90.208,266.063,89.456,268.985L89.456,268.985z" fill="#f7ba61"/><g><path d="M61.6,425.449c4.326,6.078,10.657,10.435,17.88,12.304L126,449.601   c17.123,4.36,34.538-5.983,38.904-23.104l0.736-2.896l-23.2-10.08C142.44,413.521,138.12,446.001,61.6,425.449z" fill="#ea9d2d"/><path d="M87.978,274.805l108.534,27.651l-27.651,108.534L60.328,383.339L87.978,274.805z" fill="#ea9d2d"/></g><path d="M152.707,117.9l7.9-31.01l62.019,15.8l-7.9,31.01L152.707,117.9z" fill="#fbb540"/><g><path d="M194.4,367.201c-1.997-0.003-3.986-0.256-5.92-0.752l-15.512-3.944   c-12.846-3.267-20.611-16.33-17.344-29.176s16.33-20.611,29.176-17.344l15.504,3.952c12.848,3.257,20.623,16.314,17.366,29.162   c-2.702,10.657-12.3,18.116-23.294,18.102H194.4z" fill="#fdc9a6"/><path d="M186.528,398.201c-2.016-0.004-4.023-0.259-5.976-0.76l-15.496-3.944   c-12.93-2.918-21.046-15.765-18.128-28.695s15.765-21.046,28.695-18.128c0.43,0.097,0.857,0.206,1.281,0.326l15.504,3.944   c12.853,3.24,20.646,16.286,17.406,29.138c-2.689,10.667-12.285,18.14-23.286,18.134L186.528,398.201z" fill="#fdc9a6"/><path d="M178.576,429.225c-1.997-0.003-3.986-0.256-5.92-0.752l-15.504-3.952   c-12.826-3.345-20.512-16.453-17.168-29.279c3.319-12.726,16.261-20.411,29.024-17.233l15.496,3.944   c12.853,3.24,20.646,16.285,17.406,29.138C199.217,421.776,189.595,429.254,178.576,429.225L178.576,429.225z" fill="#fdc9a6"/><path d="M202.28,336.193c-1.997-0.003-3.986-0.256-5.92-0.752l-15.512-3.952   c-12.862-3.203-20.692-16.227-17.488-29.089c3.203-12.862,16.227-20.692,29.089-17.488c0.085,0.021,0.171,0.043,0.256,0.065   l15.504,3.952c12.848,3.257,20.623,16.314,17.366,29.162C222.872,328.749,213.274,336.207,202.28,336.193L202.28,336.193z" fill="#fdc9a6"/></g><path d="M160.463,119.903l46.514,11.85l-11.85,46.514l-46.514-11.85L160.463,119.903z" fill="#744630"/><path d="M402.332,383.34l-108.534,27.651l-27.651-108.534l108.534-27.651L402.332,383.34z" fill="#ea9d2d"/><path d="M240.002,102.727l62.019-15.8l7.9,31.01l-62.019,15.8L240.002,102.727z" fill="#fbb540"/><g><path d="M268.248,367.201c-13.255,0.012-24.01-10.723-24.022-23.978   c-0.01-10.991,7.448-20.585,18.102-23.286l15.496-3.952c12.846-3.272,25.912,4.49,29.184,17.336s-4.49,25.912-17.336,29.184   l-15.504,3.944C272.234,366.945,270.245,367.198,268.248,367.201L268.248,367.201z" fill="#fdc9a6"/><path d="M276.096,398.201c-13.255,0.008-24.006-10.731-24.014-23.986c-0.006-11,7.467-20.597,18.134-23.286   l15.504-3.944c12.848-3.281,25.923,4.476,29.204,17.324s-4.476,25.923-17.324,29.204l-15.512,3.944   C280.13,397.955,278.117,398.205,276.096,398.201z" fill="#fdc9a6"/><path d="M284.048,429.225c-13.255,0.034-24.028-10.683-24.062-23.938   c-0.028-11.019,7.45-20.641,18.134-23.334l15.512-3.944c12.879-3.135,25.861,4.763,28.996,17.642   c3.088,12.686-4.531,25.513-17.148,28.87l-15.512,3.952C288.034,428.969,286.045,429.222,284.048,429.225L284.048,429.225z" fill="#fdc9a6"/><path d="M260.36,336.193c-10.973-0.014-20.546-7.451-23.272-18.08c-3.275-12.839,4.475-25.903,17.312-29.184   l15.504-3.952c12.826-3.345,25.935,4.341,29.28,17.167c3.345,12.826-4.341,25.935-17.167,29.28   c-0.085,0.022-0.171,0.044-0.256,0.065l-15.504,3.952C264.33,335.937,262.349,336.19,260.36,336.193L260.36,336.193z" fill="#fdc9a6"/></g><path d="M314.021,166.416l-46.514,11.85l-11.85-46.514l46.514-11.85L314.021,166.416z" fill="#744630"/><g><path d="M224,13.401h16v32h-16V13.401z" fill="#ea9d2d"/><path d="M168.81,35.291l10.704-11.892l23.784,21.408l-10.704,11.892L168.81,35.291z" fill="#ea9d2d"/><path d="M264.812,44.809l23.784-21.408L299.3,35.293l-23.784,21.408L264.812,44.809z" fill="#ea9d2d"/></g><g><path d="M416,77.401h16v16h-16V77.401z" id="SVGCleanerId_0" fill="#f7ba61"/><path d="M416,125.401h16v16h-16V125.401z" id="SVGCleanerId_1" fill="#f7ba61"/><path d="M440,101.401h16v16h-16V101.401z" id="SVGCleanerId_2" fill="#f7ba61"/><path d="M392,101.401h16v16h-16V101.401z" id="SVGCleanerId_3" fill="#f7ba61"/><path d="M416,77.401h16v16h-16V77.401z" id="SVGCleanerId_0_1_" fill="#f7ba61"/><path d="M416,125.401h16v16h-16V125.401z" id="SVGCleanerId_1_1_" fill="#f7ba61"/><path d="M440,101.401h16v16h-16V101.401z" id="SVGCleanerId_2_1_" fill="#f7ba61"/><path d="M392,101.401h16v16h-16V101.401z" id="SVGCleanerId_3_1_" fill="#f7ba61"/><path d="M32,29.401h16v16H32V29.401z" fill="#f7ba61"/><path d="M32,61.401h16v16H32V61.401z" fill="#f7ba61"/><path d="M48,45.401h16v16H48V45.401z" fill="#f7ba61"/><path d="M16,45.401h16v16H16V45.401z" fill="#f7ba61"/></g><g><path d="M160.464,119.905L155,140.897l46.48,12.416l5.496-21.552L160.464,119.905z" fill="#5b3726"/><path d="M255.656,131.761l46.512-11.856l5.496,21.496l-46.744,11.024L255.656,131.761z" fill="#5b3726"/></g><g><path d="M215.792,332.329c0,0-15.352,9.776-25.072,1.672c2.393,11.123,13.349,18.2,24.471,15.807   c0.83-0.178,1.647-0.408,2.449-0.687C219.49,343.521,218.816,337.393,215.792,332.329L215.792,332.329z" fill="#f6bb92"/><path d="M247.064,332.329c0,0,15.352,9.776,25.072,1.672c-2.393,11.123-13.349,18.2-24.471,15.807   c-0.83-0.178-1.647-0.408-2.449-0.687C243.361,343.522,244.036,337.392,247.064,332.329L247.064,332.329z" fill="#f6bb92"/><path d="M255.064,363.409c0,0,15.352,9.768,25.072,1.672c-2.391,11.118-13.342,18.194-24.461,15.803   c-0.833-0.179-1.655-0.41-2.459-0.691C251.362,374.596,252.036,368.469,255.064,363.409L255.064,363.409z" fill="#f6bb92"/><path d="M262.872,394.417c0,0,15.352,9.768,25.072,1.672c-2.391,11.118-13.342,18.194-24.461,15.803   c-0.833-0.179-1.655-0.41-2.459-0.691C259.17,405.604,259.844,399.477,262.872,394.417L262.872,394.417z" fill="#f6bb92"/><path d="M209.368,381.169c0.104-0.36,0.28-0.68,0.376-1.04c1.492-5.86,0.694-12.068-2.232-17.36   c-0.166,0.046-0.329,0.102-0.488,0.168c0,0-14.584,11.2-24.304,3.064c2.398,11.108,13.347,18.168,24.455,15.77   C207.917,381.611,208.649,381.41,209.368,381.169L209.368,381.169z" fill="#f6bb92"/><path d="M201.832,411.145c1.407-5.552,0.756-11.426-1.832-16.536c-0.329,0.071-0.649,0.181-0.952,0.328   c0,0-14.584,11.2-24.304,3.064c2.407,11.092,13.35,18.134,24.442,15.727c0.661-0.143,1.314-0.319,1.958-0.527   C201.36,412.521,201.656,411.865,201.832,411.145z" fill="#f6bb92"/></g></g><g transform="matrix(0.1171875 0 0 0.1171875 50 173)" id="L1_207"><path d="m355.294 140.587c-27.587-23.754-62.851-36.837-99.294-36.837s-71.707 13.082-99.294 36.837c-3.138 2.703-3.492 7.438-.789 10.576 2.702 3.138 7.437 3.492 10.576.789 24.867-21.412 56.654-33.204 89.507-33.204s64.641 11.792 89.507 33.204c3.131 2.696 7.867 2.357 10.576-.789 2.703-3.138 2.35-7.873-.789-10.576z"/><path d="m345.507 360.048c-24.867 21.412-56.654 33.204-89.507 33.204s-64.641-11.792-89.507-33.204c-3.14-2.703-7.875-2.349-10.576.789-2.703 3.139-2.349 7.874.789 10.576 27.588 23.754 62.851 36.837 99.294 36.837s71.707-13.082 99.294-36.837c3.138-2.703 3.492-7.438.789-10.576-2.702-3.139-7.436-3.493-10.576-.789z"/><path d="m240.055 224.816c3.589 0 6.499-2.91 6.499-6.499s-2.91-6.499-6.499-6.499h-31.756c-3.589 0-6.499 2.91-6.499 6.499v75.366c0 3.589 2.91 6.499 6.499 6.499h31.756c3.589 0 6.499-2.91 6.499-6.499s-2.91-6.499-6.499-6.499h-25.257v-24.685h22.916c3.589 0 6.499-2.91 6.499-6.499s-2.91-6.499-6.499-6.499h-22.916v-24.685z"/><path d="m310.707 224.816c3.589 0 6.499-2.91 6.499-6.499s-2.91-6.499-6.499-6.499h-31.756c-3.589 0-6.499 2.91-6.499 6.499v75.366c0 3.589 2.91 6.499 6.499 6.499h31.756c3.589 0 6.499-2.91 6.499-6.499s-2.91-6.499-6.499-6.499h-25.257v-24.685h22.915c3.589 0 6.499-2.91 6.499-6.499s-2.91-6.499-6.499-6.499h-22.915v-24.685z"/><path d="m145.693 211.471h-22.094c-3.589 0-6.499 2.91-6.499 6.499v35.024.057 40.98c0 3.584 2.907 6.499 6.499 6.499h.029c.001 0 20.322-.09 25.924-.09 14.873 0 26.972-12.1 26.972-26.972 0-9.498-4.939-17.859-12.38-22.666 3.463-4.161 5.549-9.506 5.549-15.329.001-13.236-10.766-24.002-24-24.002zm0 12.998c6.067 0 11.002 4.935 11.002 11.002s-4.935 11.003-11.002 11.003c-1.228 0 4.336-.009-15.595.021v-22.025h15.595zm3.859 62.972c-3.547 0-12.985.036-19.453.063v-27.981c13.768-.056 7.396-.015 19.453-.029 7.705 0 13.974 6.269 13.974 13.974 0 7.704-6.269 13.973-13.974 13.973z"/><path d="m396.071 237.737c0-14.483-12.285-26.266-27.385-26.266h-20.212c-.004 0-.008.001-.013.001-.004 0-.008-.001-.012-.001-3.589 0-6.499 2.91-6.499 6.499v76.06c0 3.589 2.91 6.499 6.499 6.499s6.499-2.91 6.499-6.499v-29.502l29.744 33.796c2.375 2.698 6.482 2.953 9.173.585 2.694-2.372 2.956-6.478.585-9.173l-22.787-25.891c13.704-1.428 24.408-12.59 24.408-26.108zm-27.385 13.268c-3.131 0-9.013.027-13.61.051-.076-14.041-.031-9.386-.082-26.587h13.693c7.798 0 14.386 6.076 14.386 13.268-.001 7.192-6.589 13.268-14.387 13.268z"/><path d="m496.438 237.245c18.683-22.467 10.929-56.525-15.674-68.67-12.857-5.87-19.702-20.083-16.274-33.794 7.088-28.363-14.693-55.65-43.916-55.069-14.111.328-26.464-9.545-29.326-23.387-5.916-28.614-37.378-43.787-63.461-30.561-12.606 6.392-27.986 2.881-36.569-8.347-17.745-23.213-52.676-23.233-70.436 0-8.583 11.229-23.963 14.739-36.569 8.347-26.06-13.215-57.539 1.923-63.461 30.561-2.862 13.841-15.234 23.692-29.326 23.386-29.221-.583-51.006 26.701-43.916 55.069 3.427 13.712-3.417 27.924-16.274 33.794-26.579 12.136-34.373 46.186-15.673 68.671 9.037 10.867 9.037 26.642 0 37.509-18.683 22.467-10.929 56.525 15.674 68.67 12.857 5.87 19.702 20.083 16.274 33.794-7.08 28.33 14.683 55.677 43.916 55.069 14.131-.279 26.465 9.546 29.326 23.387 5.916 28.612 37.377 43.788 63.461 30.561 12.606-6.393 27.985-2.881 36.569 8.347 17.745 23.213 52.676 23.233 70.436 0 8.584-11.229 23.965-14.738 36.569-8.347 26.057 13.215 57.539-1.921 63.461-30.561 2.862-13.841 15.201-23.689 29.326-23.386 29.212.603 51.006-26.698 43.916-55.069-3.427-13.712 3.417-27.924 16.274-33.794 26.579-12.135 34.373-46.185 15.673-68.67-9.038-10.868-9.038-26.642 0-37.51zm-21.903 92.536c-19.432 8.871-29.776 30.351-24.597 51.074 4.687 18.754-9.714 36.836-29.058 36.438-21.324-.42-39.996 14.427-44.321 35.345-3.915 18.935-24.732 28.971-41.99 20.221-19.05-9.661-42.295-4.355-55.268 12.615-11.741 15.358-34.853 15.373-46.605-.001-13.017-17.027-36.277-22.244-55.268-12.614-17.242 8.743-38.072-1.272-41.99-20.222-4.325-20.919-22.946-35.762-44.321-35.345-19.271.415-33.759-17.625-29.058-36.438 5.179-20.723-5.165-42.203-24.597-51.074-17.587-8.029-22.743-30.559-10.37-45.437 13.658-16.424 13.658-40.265 0-56.689-12.364-14.868-7.229-37.403 10.371-45.437 19.432-8.871 29.776-30.351 24.597-51.074-4.687-18.753 9.727-36.85 29.058-36.438 21.351.455 39.996-14.426 44.321-35.345 3.915-18.934 24.731-28.971 41.99-20.221 19.051 9.661 42.295 4.355 55.268-12.615 11.742-15.36 34.854-15.371 46.605 0v.001c12.973 16.97 36.217 22.275 55.268 12.614 17.241-8.743 38.072 1.272 41.99 20.222 4.344 21.009 23.06 35.786 44.321 35.345 19.327-.395 33.75 17.665 29.058 36.438-5.179 20.723 5.165 42.203 24.597 51.074 17.587 8.029 22.743 30.559 10.37 45.437-13.658 16.424-13.658 40.265 0 56.689 12.364 14.868 7.229 37.403-10.371 45.437z"/><path d="m437.133 267.077c-4.121-.42-7.8 2.582-8.218 6.703-1.803 17.755-6.325 34.95-13.28 51.065h-319.27c-6.947-16.097-11.466-33.271-13.273-51.005-.42-4.121-4.103-7.12-8.221-6.7-4.121.42-7.12 4.101-6.7 8.221 9.764 95.81 90.712 169.45 187.829 169.45 97.099 0 178.099-73.634 187.836-169.515.419-4.121-2.582-7.8-6.703-8.219zm-181.133 162.736c-64.051 0-121.967-34.998-152.283-89.969h304.566c-30.422 55.164-88.427 89.969-152.283 89.969z"/><path d="m256 67.189c-98.193 0-179.355 75.114-188.043 171.681-.371 4.124 2.672 7.77 6.797 8.141 4.152.372 7.772-2.696 8.141-6.797 1.661-18.464 6.25-36.341 13.464-53.059h319.283c7.212 16.715 11.802 34.589 13.464 53.05.371 4.126 4.023 7.167 8.141 6.797 4.125-.372 7.168-4.016 6.797-8.141-8.702-96.637-89.929-171.672-188.044-171.672zm-152.298 104.968c30.226-54.811 88.05-89.969 152.298-89.969 64.305 0 122.11 35.227 152.298 89.969z"/></g><g transform="matrix(0.9375 0 0 0.9375 271 89)" id="L1_208"><path d="m42 34.14v22.86a4 4 0 0 1 -4 4h-12a4 4 0 0 1 -4-4v-22.86a9.991 9.991 0 0 1 2.93-7.07l1.52-1.52a4.011 4.011 0 0 0 1.09-3.62 22.2 22.2 0 0 1 -.54-3.93 32.47 32.47 0 0 1 1.5-7.38 37.529 37.529 0 0 0 6.95.06 43.718 43.718 0 0 1 1.55 8.32 14.169 14.169 0 0 1 -.41 2.89 4.01 4.01 0 0 0 1.06 3.76l1.42 1.42a9.991 9.991 0 0 1 2.93 7.07z" fill="#8b5e3c"/><path d="m22 36h20v14h-20z" fill="#ee8700"/><path d="m37 5v1a1 1 0 0 1 -1 1h-8a1 1 0 0 1 -1-1v-1a2.006 2.006 0 0 1 2-2h6a2.006 2.006 0 0 1 2 2z" fill="#ee8700"/><path d="m35 7 .689 2.757a1 1 0 0 1 -.97 1.243h-5.438a1 1 0 0 1 -.97-1.243l.689-2.757" fill="#754c29"/></g><g transform="matrix(0.12096773833036423 0 0 0.12096773833036423 85 68)" id="L1_209"><g><path d="m376 386.63c0 1.69-.49 3.31-1.36 4.68-.88 1.37-2.14 2.49-3.68 3.2-6.02 2.78-17.52 7.52-34.96 12.39v-14.9c0-13.25-10.75-24-24-24-6.62 0-12.62 2.69-16.97 7.03-4.34 4.35-7.03 10.35-7.03 16.97v25.11.01c-9.79 1.52-20.45 2.88-32 3.97v-21.09c0-13.25-10.75-24-24-24-6.62 0-12.62 2.69-16.97 7.03-4.34 4.35-7.03 10.35-7.03 16.97v23.83c-5.2.11-10.54.17-16 .17s-10.8-.06-16-.17v-23.83c0-13.25-10.75-24-24-24-6.62 0-12.62 2.69-16.97 7.03-4.34 4.35-7.03 10.35-7.03 16.97v21.09c-11.55-1.09-22.21-2.45-32-3.97v-.01-25.11c0-13.25-10.75-24-24-24-6.62 0-12.62 2.69-16.97 7.03-4.34 4.35-7.03 10.35-7.03 16.97v14.9c-17.44-4.87-28.94-9.61-34.96-12.39-3.08-1.42-5.04-4.49-5.04-7.88 0-1.72.51-3.39 1.46-4.82 4.74-7.11 8.38-14.84 10.82-22.93 2.46-8.1 3.72-16.55 3.72-25.1v-29.78c0 22.09 75.22 40 168 40s168-17.91 168-40v29.78c0 17.1 5.06 33.81 14.54 48.03.95 1.43 1.46 3.1 1.46 4.82z" fill="#b4dd7f"/><path d="m360 48v29.78c0 16.54 4.74 32.73 13.63 46.64.81 1.27 1.5 2.61 1.94 4.05.24.76.43 1.55.43 2.16v13.58c-1.09-.14-2.2-.21-3.31-.21h-36.69v-8c0-13.25-10.75-24-24-24s-24 10.75-24 24v8h-32c0-13.25-10.75-24-24-24s-24 10.75-24 24h-12.03c-6.72 0-13.42.67-19.97 2.05v-2.05c0-13.25-10.75-24-24-24s-24 10.75-24 24v21.09c-11.55-1.1-22.21-2.45-32-3.97v-25.12c0-13.25-10.75-24-24-24-6.62 0-12.62 2.69-16.97 7.03-4.34 4.35-7.03 10.35-7.03 16.97v14.91c-17.43-4.88-28.94-9.61-34.96-12.4-3.08-1.42-5.04-4.49-5.04-7.88 0-1.72.51-3.39 1.46-4.82 9.48-14.22 14.54-30.93 14.54-48.03v-29.78c0 22.09 75.22 40 168 40s168-17.91 168-40z" fill="#b4dd7f"/><ellipse cx="192px" cy="48px" rx="168px" ry="40px" fill="#a0d468"/><path d="m360 304c0 22.09-75.22 40-168 40s-168-17.91-168-40c0-17.78 48.75-32.86 116.16-38.06 18.37 21.74 94.83 38.06 171.84 38.06 16.21 0 32.39-.72 48-2.07z" fill="#a0d468"/><path d="m336 136v8h-4.69c-7.24 0-14.19 2.88-19.31 8-5.12-5.12-12.07-8-19.31-8h-4.69v-8c0-13.25 10.75-24 24-24s24 10.75 24 24z" fill="#8cc152"/><path d="m256 144h-4.69c-3.62 0-7.17.72-10.45 2.08s-6.3 3.36-8.86 5.92c-5.12-5.12-12.07-8-19.31-8h-4.69c0-13.25 10.75-24 24-24s24 10.75 24 24z" fill="#8cc152"/><path d="m176 144v2.05c-5.46 1.15-10.82 2.79-16 4.95-8.31 3.46-16.62 8.37-20.94 15.04-3.77-.29-7.46-.61-11.06-.95v-21.09c0-13.25 10.75-24 24-24s24 10.75 24 24z" fill="#8cc152"/><path d="m96 136v25.12c-19.3-3-35.24-6.64-48-10.21v-14.91c0-6.62 2.69-12.62 7.03-16.97 4.35-4.34 10.35-7.03 16.97-7.03 13.25 0 24 10.75 24 24z" fill="#8cc152"/><path d="m140.16 265.94c-2.71-3.21-4.16-6.53-4.16-9.94v-80c0 4.57 3.18 9.14 8.94 13.54 5.5 4.22 13.36 8.28 23.06 12.04v30.42c0 13.25 10.75 24 24 24 6.62 0 12.62-2.69 16.97-7.03 4.34-4.35 7.03-10.35 7.03-16.97v-17.15c10.12 2 20.86 3.72 32 5.12v28.03c0 13.25 10.75 24 24 24 6.62 0 12.62-2.69 16.97-7.03 4.34-4.35 7.03-10.35 7.03-16.97v-24.26c5.32.17 10.66.26 16 .26s10.68-.09 16-.26v24.26c0 13.25 10.75 24 24 24 6.62 0 12.62-2.69 16.97-7.03 4.34-4.35 7.03-10.35 7.03-16.97v-28.03c11.14-1.4 21.88-3.12 32-5.12v17.15c0 13.25 10.75 24 24 24 6.62 0 12.62-2.69 16.97-7.03 4.34-4.35 7.03-10.35 7.03-16.97v-30.42c9.7-3.76 17.56-7.82 23.06-12.04 5.76-4.4 8.94-8.97 8.94-13.54v80c0 21.65-58.44 39.95-128 45.93-15.61 1.35-31.79 2.07-48 2.07-77.01 0-153.47-16.32-171.84-38.06z" fill="#b4dd7f"/><path d="m456 201.58v30.42c0 6.62-2.69 12.62-7.03 16.97-4.35 4.34-10.35 7.03-16.97 7.03-13.25 0-24-10.75-24-24v-17.15c18.48-3.64 34.91-8.18 48-13.27z" fill="#a0d468"/><path d="m376 219.97v28.03c0 6.62-2.69 12.62-7.03 16.97-4.35 4.34-10.35 7.03-16.97 7.03-13.25 0-24-10.75-24-24v-24.26c16.39-.52 32.58-1.83 48-3.77z" fill="#a0d468"/><path d="m296 223.74v24.26c0 6.62-2.69 12.62-7.03 16.97-4.35 4.34-10.35 7.03-16.97 7.03-13.25 0-24-10.75-24-24v-28.03c15.42 1.94 31.61 3.25 48 3.77z" fill="#a0d468"/><path d="m216 214.85v17.15c0 6.62-2.69 12.62-7.03 16.97-4.35 4.34-10.35 7.03-16.97 7.03-13.25 0-24-10.75-24-24v-30.42c13.09 5.09 29.52 9.63 48 13.27z" fill="#a0d468"/><path d="m176 146.05c6.55-1.38 13.25-2.05 19.97-2.05h12.03 4.69c7.24 0 14.19 2.88 19.31 8 2.56-2.56 5.58-4.56 8.86-5.92s6.83-2.08 10.45-2.08h4.69 32 4.69c7.24 0 14.19 2.88 19.31 8 5.12-5.12 12.07-8 19.31-8h4.69 36.69c1.11 0 2.22.07 3.31.21 6.02.73 11.67 3.46 16 7.79 2.56-2.56 5.58-4.56 8.86-5.92s6.83-2.08 10.45-2.08h16.72c12.33 0 24.59 2.26 35.97 7 12 5 24 13 24 25 0 4.57-3.18 9.14-8.94 13.54-43.21-8.38-102.12-13.54-167.06-13.54s-123.85 5.16-167.06 13.54c-5.76-4.4-8.94-8.97-8.94-13.54 0-3.69 1.13-7 3.06-9.96 4.32-6.67 12.63-11.58 20.94-15.04 5.18-2.16 10.54-3.8 16-4.95z" fill="#b4dd7f"/><path d="m479.06 189.54c-5.5 4.22-13.36 8.28-23.06 12.04-13.09 5.09-29.52 9.63-48 13.27-10.12 2-20.86 3.72-32 5.12-15.42 1.94-31.61 3.25-48 3.77-5.32.17-10.66.26-16 .26s-10.68-.09-16-.26c-16.39-.52-32.58-1.83-48-3.77-11.14-1.4-21.88-3.12-32-5.12-18.48-3.64-34.91-8.18-48-13.27-9.7-3.76-17.56-7.82-23.06-12.04 43.21-8.38 102.12-13.54 167.06-13.54s123.85 5.16 167.06 13.54z" fill="#ccd1d9"/><path d="m336 392v14.9c-12.76 3.58-28.7 7.22-48 10.21v-25.11c0-6.62 2.69-12.62 7.03-16.97 4.35-4.34 10.35-7.03 16.97-7.03 13.25 0 24 10.75 24 24z" fill="#8cc152"/><path d="m256 400v21.09c-14.57 1.39-30.56 2.37-48 2.74v-23.83c0-6.62 2.69-12.62 7.03-16.97 4.35-4.34 10.35-7.03 16.97-7.03 13.25 0 24 10.75 24 24z" fill="#8cc152"/><path d="m176 400v23.83c-17.44-.37-33.43-1.35-48-2.74v-21.09c0-6.62 2.69-12.62 7.03-16.97 4.35-4.34 10.35-7.03 16.97-7.03 13.25 0 24 10.75 24 24z" fill="#8cc152"/><path d="m96 392v25.11c-19.3-2.99-35.24-6.63-48-10.21v-14.9c0-6.62 2.69-12.62 7.03-16.97 4.35-4.34 10.35-7.03 16.97-7.03 13.25 0 24 10.75 24 24z" fill="#8cc152"/></g><path d="m467.077 143.615c-12.128-5.053-25.264-7.615-39.044-7.615h-16.72c-6.965 0-13.622 2.003-19.313 5.735-2.497-1.637-5.187-2.92-8-3.869v-7.239c0-1.372-.26-2.863-.793-4.561-.634-2.017-1.561-3.964-2.832-5.953-8.096-12.661-12.375-27.299-12.375-42.329v-29.784c0-15.187-18.623-27.322-55.353-36.067-32.32-7.695-75.167-11.933-120.647-11.933s-88.327 4.238-120.647 11.933c-36.73 8.745-55.353 20.88-55.353 36.067v29.784c0 15.566-4.563 30.641-13.197 43.59-1.833 2.749-2.803 5.949-2.803 9.254 0 6.481 3.802 12.425 9.686 15.144 13.651 6.306 51.719 21.114 118.478 27.362-.112.988-.164 1.947-.164 2.866v80c0 .995.077 1.979.216 2.953-29.307 2.817-54.676 7.504-73.865 13.685-25.806 8.313-38.351 18.572-38.351 31.362v29.784c0 15.567-4.563 30.641-13.197 43.591-1.834 2.749-2.803 5.948-2.803 9.253 0 6.481 3.802 12.425 9.686 15.144 19.676 9.089 76.831 30.228 182.314 30.228s162.638-21.139 182.315-30.229c5.883-2.718 9.685-8.662 9.685-15.143 0-3.305-.969-6.505-2.802-9.253-8.635-12.951-13.198-28.024-13.198-43.591v-24.561c24.342-2.417 47.45-6.347 67.176-11.546 40.36-10.638 60.824-24.66 60.824-41.677v-80c0-9.276-5.018-22.424-28.923-32.385zm-51.077 77.753c6.65-1.424 13.095-2.971 19.244-4.65 4.505-1.23 8.748-2.496 12.756-3.793v19.075c0 8.822-7.178 16-16 16s-16-7.178-16-16zm15.029-20.085c-34.247 9.353-77.632 14.717-119.029 14.717s-84.782-5.364-119.029-14.717c-9.576-2.615-17.358-5.25-23.68-7.789 40.933-6.157 90.618-9.494 142.709-9.494s101.776 3.337 142.71 9.494c-6.323 2.539-14.105 5.173-23.681 7.789zm-95.029 30.147c10.725-.502 21.449-1.333 32-2.469v19.039c0 8.822-7.178 16-16 16s-16-7.178-16-16zm-80-2.469c10.551 1.135 21.275 1.966 32 2.469v16.57c0 8.822-7.178 16-16 16s-16-7.178-16-16zm-80-16.037c4.008 1.297 8.251 2.563 12.756 3.793 6.149 1.68 12.595 3.226 19.244 4.65v10.633c0 8.822-7.178 16-16 16s-16-7.178-16-16zm-100.941-185.426c31.142-7.415 72.672-11.498 116.941-11.498s85.799 4.083 116.941 11.498c35.149 8.369 43.059 17.843 43.059 20.502s-7.91 12.133-43.059 20.502c-31.142 7.415-72.672 11.498-116.941 11.498s-85.799-4.083-116.941-11.498c-35.149-8.369-43.059-17.843-43.059-20.502s7.91-12.133 43.059-20.502zm-59.059 103.13c0-.134.039-.264.114-.377 10.393-15.588 15.886-33.731 15.886-52.467v-8.034c9.193 5.478 22.323 10.263 39.353 14.317 32.32 7.695 75.167 11.933 120.647 11.933s88.327-4.238 120.647-11.933c17.029-4.055 30.159-8.839 39.353-14.317v8.034c0 18.09 5.15 35.708 14.895 50.949.494.772.847 1.49 1.049 2.132.02.062.039.124.057.186v4.949h-24c0-17.645-14.355-32-32-32s-32 14.355-32 32h-17.013c-3.561-13.786-16.104-24-30.987-24s-27.426 10.214-30.987 24h-5.046c-4.335 0-8.607.255-12.803.759-3.293-14.167-16.011-24.759-31.165-24.759-17.645 0-32 14.355-32 32v12.227c-5.562-.614-10.893-1.288-16-2.008v-18.219c0-17.645-14.355-32-32-32s-32 14.355-32 32v4.196c-11.11-3.534-18.902-6.777-23.604-8.949-.245-.113-.396-.35-.396-.619zm312 5.543c-5.753.533-11.219 2.429-16 5.564-4.781-3.135-10.247-5.032-16-5.564v-.171c0-8.822 7.178-16 16-16s16 7.178 16 16zm-81.93.216c-5.045.747-9.826 2.565-14.07 5.348-4.244-2.783-9.025-4.601-14.07-5.348 2.712-4.991 8.001-8.387 14.07-8.387s11.358 3.396 14.07 8.387zm-110.07 20.702v-13.089c0-8.822 7.178-16 16-16 7.415 0 13.649 5.077 15.456 11.933-3.585 1.029-7.101 2.253-10.533 3.683-9.872 4.112-16.516 8.769-20.923 13.473zm-48-5.392c-12.189-2.135-22.83-4.506-32-6.894v-8.803c0-8.822 7.178-16 16-16s16 7.178 16 16zm75.077 6.688c10.167-4.237 21.233-6.385 32.89-6.385h16.72c5.159 0 10.009 2.009 13.656 5.657l5.657 5.658 5.657-5.658c3.647-3.648 8.497-5.657 13.656-5.657h41.373c5.159 0 10.009 2.009 13.656 5.657l5.657 5.658 5.657-5.658c3.647-3.648 8.497-5.657 13.656-5.657h41.373c5.159 0 10.009 2.009 13.656 5.657l5.657 5.658 5.657-5.658c3.647-3.648 8.497-5.657 13.656-5.657h16.72c11.656 0 22.723 2.148 32.89 6.385 7.127 2.968 19.079 9.204 19.079 17.615 0 .956-.865 2.696-3.237 4.965-45.014-8.368-103.312-12.965-164.763-12.965s-119.749 4.597-164.763 12.965c-2.372-2.269-3.237-4.01-3.237-4.965 0-8.411 11.952-14.647 19.077-17.615zm-103.819 129.482c19.369-6.239 46.869-11.05 77.749-13.637 9.625 9.04 26.934 16.887 51.818 23.446 34.532 9.103 79.428 14.324 123.175 14.324 11.132 0 22.337-.34 33.428-.994-6.067 3.955-17.148 8.891-36.487 13.496-31.142 7.415-72.672 11.498-116.941 11.498s-85.799-4.083-116.941-11.498c-35.149-8.369-43.059-17.843-43.059-20.502 0-2.045 4.896-8.93 27.258-16.133zm28.742 119.787c-12.199-2.146-22.846-4.525-32-6.907v-8.747c0-8.822 7.178-16 16-16s16 7.178 16 16zm80 7.952c-11.323-.377-21.98-1.013-32-1.847v-13.759c0-8.822 7.178-16 16-16s16 7.178 16 16zm80-1.847c-10.02.833-20.677 1.47-32 1.847v-15.606c0-8.822 7.178-16 16-16s16 7.178 16 16zm80-13.012c-9.154 2.382-19.801 4.76-32 6.907v-15.654c0-8.822 7.178-16 16-16s16 7.178 16 16zm39.605-13.5c-4.272 1.973-12.077 5.253-23.605 8.905v-4.152c0-17.645-14.355-32-32-32s-32 14.355-32 32v18.191c-5.105.724-10.443 1.399-16 2.017v-12.208c0-17.645-14.355-32-32-32s-32 14.355-32 32v15.953c-2.637.028-5.298.047-8 .047s-5.363-.018-8-.047v-15.953c0-17.645-14.355-32-32-32s-32 14.355-32 32v12.208c-5.557-.618-10.894-1.293-16-2.017v-18.191c0-17.645-14.355-32-32-32s-32 14.355-32 32v4.151c-11.529-3.652-19.333-6.932-23.604-8.904-.244-.113-.396-.35-.396-.619 0-.135.039-.265.114-.378 10.393-15.587 15.886-33.73 15.886-52.466v-8.034c9.193 5.478 22.323 10.263 39.353 14.317 32.32 7.695 75.167 11.933 120.647 11.933s88.327-4.238 120.647-11.933c17.029-4.055 30.159-8.839 39.353-14.317v8.034c0 18.736 5.493 36.879 15.887 52.468.074.112.113.242.113.377 0 .268-.151.505-.395.618zm63.493-105.041c-33.259 8.766-76.669 13.794-119.098 13.794s-85.839-5.028-119.098-13.794c-38.681-10.197-48.902-21.601-48.902-26.206v-57.289c4.423 2.884 9.755 5.655 16 8.308v24.981c0 17.645 14.355 32 32 32s32-14.355 32-32v-7.523c5.244.915 10.584 1.754 16 2.511v21.012c0 17.645 14.355 32 32 32s32-14.355 32-32v-16.065c2.673.043 5.341.065 8 .065s5.327-.022 8-.065v16.065c0 17.645 14.355 32 32 32s32-14.355 32-32v-21.012c5.416-.756 10.756-1.596 16-2.511v7.523c0 17.645 14.355 32 32 32s32-14.355 32-32v-24.98c6.245-2.653 11.577-5.424 16-8.308v57.288c0 4.605-10.221 16.009-48.902 26.206z"/></g><g transform="matrix(0.6396326691468505 0.6396326691468504 -0.6396326691468504 0.6396326691468505 256.79932819125435 145.65872146551425)" id="L1_210"><path d="m63 36v25c0 1.1-.9 2-2 2h-58c-1.1 0-2-.9-2-2v-25z" fill="#a67c52"/><path d="m63 36v25c0 1.1-.9 2-2 2h-58c-1.1 0-2-.9-2-2v-4.19h54.98c1.1 0 2-.9 2-2v-18.81z" fill="#8c6239"/><path d="m42 59h-20c-1.657 0-3-1.343-3-3v-12c0-1.657 1.343-3 3-3h20c1.657 0 3 1.343 3 3v12c0 1.657-1.343 3-3 3z" fill="#ffd15d"/><path d="m23 54v-8c0-.552.448-1 1-1h16c.552 0 1 .448 1 1v8c0 .552-.448 1-1 1h-16c-.552 0-1-.448-1-1z" fill="#f8f4e8"/><path d="m55.23 15.68.77 2.32-1 2h-6l-1-2 .77-2.32c.14-.4.52-.68.95-.68h4.56c.43 0 .81.28.95.68z" fill="#ffd15d"/><path d="m56 18-1 2h-3.04l1-2-.77-2.32c-.14-.4-.52-.68-.95-.68h3.04c.43 0 .81.28.95.68z" fill="#ffb000"/><path d="m35.23 15.68.77 2.32-1 2h-6l-1-2 .77-2.32c.14-.4.52-.68.95-.68h4.56c.43 0 .81.28.95.68z" fill="#ffd15d"/><path d="m36 18-1 2h-3.52l1-2-.77-2.32c-.14-.4-.52-.68-.95-.68h3.52c.43 0 .81.28.95.68z" fill="#ffb000"/><path d="m15.23 15.68.77 2.32-1 2h-6l-1-2 .77-2.32c.14-.4.52-.68.95-.68h4.56c.43 0 .81.28.95.68z" fill="#ffd15d"/><path d="m16 18-1 2h-3.25l1-2-.77-2.32c-.14-.4-.52-.68-.95-.68h3.25c.43 0 .81.28.95.68z" fill="#ffb000"/><path d="m60 33v3h-16v-3c0-1.26.59-2.44 1.6-3.2l2.06-1.55c.22-.16.36-.4.39-.67l.95-7.58h6l.95 7.58c.03.27.17.51.39.67l2.06 1.55c1.01.76 1.6 1.94 1.6 3.2z" fill="#80a53f"/><path d="m40 33v3h-16v-3c0-1.26.59-2.44 1.6-3.2l2.06-1.55c.22-.16.36-.4.39-.67l.95-7.58h6l.95 7.58c.03.27.17.51.39.67l2.06 1.55c1.01.76 1.6 1.94 1.6 3.2z" fill="#80a53f"/><path d="m20 33v3h-16v-3c0-1.26.59-2.44 1.6-3.2l2.06-1.55c.22-.16.36-.4.39-.67l.95-7.58h6l.95 7.58c.03.27.17.51.39.67l2.06 1.55c1.01.76 1.6 1.94 1.6 3.2z" fill="#80a53f"/><path d="m60 33v3h-3.64v-1c0-1.257-.591-2.441-1.595-3.196l-2.065-1.554c-.22-.16-.36-.4-.39-.67l-.751-5.988c-.114-.91-.887-1.592-1.803-1.592h-1.006l.25-2h6l.95 7.58c.03.27.17.51.39.67l2.065 1.554c1.004.755 1.595 1.939 1.595 3.196z" fill="#24725f"/><path d="m40 33.006v2.994h-3.64v-1c0-1.257-.591-2.441-1.595-3.196l-2.065-1.554c-.22-.16-.36-.4-.39-.67l-.84-6.704c-.063-.501-.488-.876-.993-.876h-1.727l.25-2h6l.95 7.58c.03.27.17.51.39.67l2.06 1.55c1.007.758 1.6 1.945 1.6 3.206z" fill="#24725f"/><path d="m20 33v3h-3.64v-1c0-1.257-.591-2.441-1.595-3.196l-2.065-1.554c-.22-.16-.36-.4-.39-.67l-.84-6.704c-.063-.501-.488-.876-.993-.876h-1.727l.25-2h6l.95 7.58c.03.27.17.51.39.67l2.065 1.554c1.004.755 1.595 1.939 1.595 3.196z" fill="#24725f"/><path d="m51.92 45c.84 0 1.3.97.78 1.62l-2.2 2.76c-.29.36-.29.88 0 1.24l2.2 2.76c.52.65.06 1.62-.78 1.62h-6.92v-10z" fill="#ffb000"/><path d="m19 45v10h-6.92c-.84 0-1.3-.97-.78-1.62l2.2-2.76c.29-.36.29-.88 0-1.24l-2.2-2.76c-.52-.65-.06-1.62.78-1.62z" fill="#ffb000"/><path d="m15 20 1-2-.77-2.32c-.14-.4-.52-.68-.95-.68h-4.56c-.43 0-.81.28-.95.68l-.77 2.32 1 2-.95 7.58c-.03.27-.17.51-.39.67l-2.06 1.55c-1.01.76-1.6 1.94-1.6 3.2v3h-3l3-25v-8c0-1.1.9-2 2-2h52c1.1 0 2 .9 2 2v8l3 25h-3v-3c0-1.26-.59-2.44-1.6-3.2l-2.06-1.55c-.22-.16-.36-.4-.39-.67l-.95-7.58 1-2-.77-2.32c-.14-.4-.52-.68-.95-.68h-4.56c-.43 0-.81.28-.95.68l-.77 2.32 1 2-.95 7.58c-.03.27-.17.51-.39.67l-2.06 1.55c-1.01.76-1.6 1.94-1.6 3.2v3h-4v-3c0-1.26-.59-2.44-1.6-3.2l-2.06-1.55c-.22-.16-.36-.4-.39-.67l-.95-7.58 1-2-.77-2.32c-.14-.4-.52-.68-.95-.68h-4.56c-.43 0-.81.28-.95.68l-.77 2.32 1 2-.95 7.58c-.03.27-.17.51-.39.67l-2.06 1.55c-1.01.76-1.6 1.94-1.6 3.2v3h-4v-3c0-1.26-.59-2.44-1.6-3.2l-2.06-1.55c-.22-.16-.36-.4-.39-.67zm31-10v-4c0-.55-.45-1-1-1h-26c-.55 0-1 .45-1 1v4c0 .55.45 1 1 1h26c.55 0 1-.45 1-1z" fill="#a67c52"/><g fill="#694a2b"><path d="m5.36 30c-.86.76-1.36 1.84-1.36 3v3h-3l.72-6z"/><path d="m25.36 30c-.86.76-1.36 1.84-1.36 3v3h-4v-3c0-1.16-.5-2.24-1.36-3z"/><path d="m45.64 29.77-.04.03c-1.01.76-1.6 1.94-1.6 3.2v3h-4v-3c0-1.16-.5-2.24-1.36-3h4.73c.78 0 1.54-.08 2.27-.23z"/><path d="m60 36v-3c0-1.26-.59-2.44-1.6-3.2l-2.06-1.55c-.22-.16-.36-.4-.39-.67l-.95-7.58 1-2-.77-2.32c-.06-.17-.16-.31-.29-.42v-14.26h3.06c1.1 0 2 .9 2 2v8l3 25z"/></g><path d="m4 41.172v-1.416c0-.567.46-1.027 1.027-1.027h1.748c.968 0 1.399 1.216.647 1.825l-1.748 1.416c-.672.544-1.674.066-1.674-.798z" fill="#8c6239"/><path d="m6.278 5.707v-1.416c0-.567.46-1.027 1.027-1.027h1.748c.968 0 1.399 1.216.647 1.825l-1.748 1.416c-.672.544-1.674.066-1.674-.798z" fill="#8c6239"/><path d="m7.071 31.682c.258-.51.662-1.049 1.285-1.375.597-.313 1.317.133 1.317.807v.984c.001.498-.403.902-.901.902h-.897c-.677 0-1.109-.714-.804-1.318z" fill="#cccb6a"/><path d="m27.499 31.682c.258-.51.662-1.049 1.285-1.375.597-.313 1.317.133 1.317.807v.984c0 .498-.404.902-.902.902h-.897c-.677 0-1.109-.714-.803-1.318z" fill="#cccb6a"/><path d="m47.499 31.682c.258-.51.662-1.049 1.285-1.375.597-.313 1.317.133 1.317.807v.984c0 .498-.404.902-.902.902h-.897c-.677 0-1.109-.714-.803-1.318z" fill="#cccb6a"/><path d="m36 21h-8c-.552 0-1-.448-1-1s.448-1 1-1h8c.552 0 1 .448 1 1s-.448 1-1 1z" fill="#cccb6a"/><path d="m35.859 29h-3.859c-.552 0-1-.448-1-1s.448-1 1-1h3.859c.552 0 1 .448 1 1s-.448 1-1 1z" fill="#cccb6a"/><path d="m56 21h-8c-.552 0-1-.448-1-1s.448-1 1-1h8c.552 0 1 .448 1 1s-.448 1-1 1z" fill="#cccb6a"/><path d="m55.859 29h-3.859c-.552 0-1-.448-1-1s.448-1 1-1h3.859c.552 0 1 .448 1 1s-.448 1-1 1z" fill="#cccb6a"/><path d="m16 21h-8c-.552 0-1-.448-1-1s.448-1 1-1h8c.552 0 1 .448 1 1s-.448 1-1 1z" fill="#cccb6a"/><path d="m15.859 29h-3.859c-.552 0-1-.448-1-1s.448-1 1-1h3.859c.552 0 1 .448 1 1s-.448 1-1 1z" fill="#cccb6a"/><path d="m13 12h-9c-.552 0-1-.448-1-1s.448-1 1-1h9c.552 0 1 .448 1 1s-.448 1-1 1z" fill="#8c6239"/><path d="m60 12h-9c-.552 0-1-.448-1-1s.448-1 1-1h9c.552 0 1 .448 1 1s-.448 1-1 1z" fill="#8c6239"/><path d="m36 50h-8c-.552 0-1-.448-1-1s.448-1 1-1h8c.552 0 1 .448 1 1s-.448 1-1 1z" fill="#616570"/><path d="m34 53h-4c-.552 0-1-.448-1-1s.448-1 1-1h4c.552 0 1 .448 1 1s-.448 1-1 1z" fill="#616570"/></g></defs><g fi:class="KUsePattern"><pattern id="pattern_L1_196" width="350" height="350" patternUnits="userSpaceOnUse"><use xlink:href="#L1_196" x="-350" y="-350"/><use xlink:href="#L1_196" x="0" y="-350"/><use xlink:href="#L1_196" x="350" y="-350"/><use xlink:href="#L1_196" x="-350" y="0"/><use xlink:href="#L1_196" x="0" y="0"/><use xlink:href="#L1_196" x="350" y="0"/><use xlink:href="#L1_196" x="-350" y="350"/><use xlink:href="#L1_196" x="0" y="350"/><use xlink:href="#L1_196" x="350" y="350"/></pattern><rect x="0" y="0" width="100%" height="100%" fill="url(#pattern_L1_196)"/></g><g fi:class="KUsePattern"><pattern id="pattern_L1_197" width="350" height="350" patternUnits="userSpaceOnUse"><use xlink:href="#L1_197" x="-350" y="-350"/><use xlink:href="#L1_197" x="0" y="-350"/><use xlink:href="#L1_197" x="350" y="-350"/><use xlink:href="#L1_197" x="-350" y="0"/><use xlink:href="#L1_197" x="0" y="0"/><use xlink:href="#L1_197" x="350" y="0"/><use xlink:href="#L1_197" x="-350" y="350"/><use xlink:href="#L1_197" x="0" y="350"/><use xlink:href="#L1_197" x="350" y="350"/></pattern><rect x="0" y="0" width="100%" height="100%" fill="url(#pattern_L1_197)"/></g><g fi:class="KUsePattern"><pattern id="pattern_L1_199" width="350" height="350" patternUnits="userSpaceOnUse"><use xlink:href="#L1_199" x="-350" y="-350"/><use xlink:href="#L1_199" x="0" y="-350"/><use xlink:href="#L1_199" x="350" y="-350"/><use xlink:href="#L1_199" x="-350" y="0"/><use xlink:href="#L1_199" x="0" y="0"/><use xlink:href="#L1_199" x="350" y="0"/><use xlink:href="#L1_199" x="-350" y="350"/><use xlink:href="#L1_199" x="0" y="350"/><use xlink:href="#L1_199" x="350" y="350"/></pattern><rect x="0" y="0" width="100%" height="100%" fill="url(#pattern_L1_199)"/></g><g fi:class="KUsePattern"><pattern id="pattern_L1_200" width="350" height="350" patternUnits="userSpaceOnUse"><use xlink:href="#L1_200" x="-350" y="-350"/><use xlink:href="#L1_200" x="0" y="-350"/><use xlink:href="#L1_200" x="350" y="-350"/><use xlink:href="#L1_200" x="-350" y="0"/><use xlink:href="#L1_200" x="0" y="0"/><use xlink:href="#L1_200" x="350" y="0"/><use xlink:href="#L1_200" x="-350" y="350"/><use xlink:href="#L1_200" x="0" y="350"/><use xlink:href="#L1_200" x="350" y="350"/></pattern><rect x="0" y="0" width="100%" height="100%" fill="url(#pattern_L1_200)"/></g><g fi:class="KUsePattern"><pattern id="pattern_L1_201" width="350" height="350" patternUnits="userSpaceOnUse"><use xlink:href="#L1_201" x="-350" y="-350"/><use xlink:href="#L1_201" x="0" y="-350"/><use xlink:href="#L1_201" x="350" y="-350"/><use xlink:href="#L1_201" x="-350" y="0"/><use xlink:href="#L1_201" x="0" y="0"/><use xlink:href="#L1_201" x="350" y="0"/><use xlink:href="#L1_201" x="-350" y="350"/><use xlink:href="#L1_201" x="0" y="350"/><use xlink:href="#L1_201" x="350" y="350"/></pattern><rect x="0" y="0" width="100%" height="100%" fill="url(#pattern_L1_201)"/></g><g fi:class="KUsePattern"><pattern id="pattern_L1_202" width="350" height="350" patternUnits="userSpaceOnUse"><use xlink:href="#L1_202" x="-350" y="-350"/><use xlink:href="#L1_202" x="0" y="-350"/><use xlink:href="#L1_202" x="350" y="-350"/><use xlink:href="#L1_202" x="-350" y="0"/><use xlink:href="#L1_202" x="0" y="0"/><use xlink:href="#L1_202" x="350" y="0"/><use xlink:href="#L1_202" x="-350" y="350"/><use xlink:href="#L1_202" x="0" y="350"/><use xlink:href="#L1_202" x="350" y="350"/></pattern><rect x="0" y="0" width="100%" height="100%" fill="url(#pattern_L1_202)"/></g><g fi:class="KUsePattern"><pattern id="pattern_L1_203" width="350" height="350" patternUnits="userSpaceOnUse"><use xlink:href="#L1_203" x="-350" y="-350"/><use xlink:href="#L1_203" x="0" y="-350"/><use xlink:href="#L1_203" x="350" y="-350"/><use xlink:href="#L1_203" x="-350" y="0"/><use xlink:href="#L1_203" x="0" y="0"/><use xlink:href="#L1_203" x="350" y="0"/><use xlink:href="#L1_203" x="-350" y="350"/><use xlink:href="#L1_203" x="0" y="350"/><use xlink:href="#L1_203" x="350" y="350"/></pattern><rect x="0" y="0" width="100%" height="100%" fill="url(#pattern_L1_203)"/></g><g fi:class="KUsePattern"><pattern id="pattern_L1_204" width="350" height="350" patternUnits="userSpaceOnUse"><use xlink:href="#L1_204" x="-350" y="-350"/><use xlink:href="#L1_204" x="0" y="-350"/><use xlink:href="#L1_204" x="350" y="-350"/><use xlink:href="#L1_204" x="-350" y="0"/><use xlink:href="#L1_204" x="0" y="0"/><use xlink:href="#L1_204" x="350" y="0"/><use xlink:href="#L1_204" x="-350" y="350"/><use xlink:href="#L1_204" x="0" y="350"/><use xlink:href="#L1_204" x="350" y="350"/></pattern><rect x="0" y="0" width="100%" height="100%" fill="url(#pattern_L1_204)"/></g><g fi:class="KUsePattern"><pattern id="pattern_L1_205" width="350" height="350" patternUnits="userSpaceOnUse"><use xlink:href="#L1_205" x="-350" y="-350"/><use xlink:href="#L1_205" x="0" y="-350"/><use xlink:href="#L1_205" x="350" y="-350"/><use xlink:href="#L1_205" x="-350" y="0"/><use xlink:href="#L1_205" x="0" y="0"/><use xlink:href="#L1_205" x="350" y="0"/><use xlink:href="#L1_205" x="-350" y="350"/><use xlink:href="#L1_205" x="0" y="350"/><use xlink:href="#L1_205" x="350" y="350"/></pattern><rect x="0" y="0" width="100%" height="100%" fill="url(#pattern_L1_205)"/></g><g fi:class="KUsePattern"><pattern id="pattern_L1_206" width="350" height="350" patternUnits="userSpaceOnUse"><use xlink:href="#L1_206" x="-350" y="-350"/><use xlink:href="#L1_206" x="0" y="-350"/><use xlink:href="#L1_206" x="350" y="-350"/><use xlink:href="#L1_206" x="-350" y="0"/><use xlink:href="#L1_206" x="0" y="0"/><use xlink:href="#L1_206" x="350" y="0"/><use xlink:href="#L1_206" x="-350" y="350"/><use xlink:href="#L1_206" x="0" y="350"/><use xlink:href="#L1_206" x="350" y="350"/></pattern><rect x="0" y="0" width="100%" height="100%" fill="url(#pattern_L1_206)"/></g><g fi:class="KUsePattern"><pattern id="pattern_L1_207" width="350" height="350" patternUnits="userSpaceOnUse"><use xlink:href="#L1_207" x="-350" y="-350"/><use xlink:href="#L1_207" x="0" y="-350"/><use xlink:href="#L1_207" x="350" y="-350"/><use xlink:href="#L1_207" x="-350" y="0"/><use xlink:href="#L1_207" x="0" y="0"/><use xlink:href="#L1_207" x="350" y="0"/><use xlink:href="#L1_207" x="-350" y="350"/><use xlink:href="#L1_207" x="0" y="350"/><use xlink:href="#L1_207" x="350" y="350"/></pattern><rect x="0" y="0" width="100%" height="100%" fill="url(#pattern_L1_207)"/></g><g fi:class="KUsePattern"><pattern id="pattern_L1_208" width="350" height="350" patternUnits="userSpaceOnUse"><use xlink:href="#L1_208" x="-350" y="-350"/><use xlink:href="#L1_208" x="0" y="-350"/><use xlink:href="#L1_208" x="350" y="-350"/><use xlink:href="#L1_208" x="-350" y="0"/><use xlink:href="#L1_208" x="0" y="0"/><use xlink:href="#L1_208" x="350" y="0"/><use xlink:href="#L1_208" x="-350" y="350"/><use xlink:href="#L1_208" x="0" y="350"/><use xlink:href="#L1_208" x="350" y="350"/></pattern><rect x="0" y="0" width="100%" height="100%" fill="url(#pattern_L1_208)"/></g><g fi:class="KUsePattern"><pattern id="pattern_L1_209" width="350" height="350" patternUnits="userSpaceOnUse"><use xlink:href="#L1_209" x="-350" y="-350"/><use xlink:href="#L1_209" x="0" y="-350"/><use xlink:href="#L1_209" x="350" y="-350"/><use xlink:href="#L1_209" x="-350" y="0"/><use xlink:href="#L1_209" x="0" y="0"/><use xlink:href="#L1_209" x="350" y="0"/><use xlink:href="#L1_209" x="-350" y="350"/><use xlink:href="#L1_209" x="0" y="350"/><use xlink:href="#L1_209" x="350" y="350"/></pattern><rect x="0" y="0" width="100%" height="100%" fill="url(#pattern_L1_209)"/></g><g fi:class="KUsePattern" opacity="1"><pattern id="pattern_L1_210" width="350" height="350" patternUnits="userSpaceOnUse"><use xlink:href="#L1_210" x="-350" y="-350"/><use xlink:href="#L1_210" x="0" y="-350"/><use xlink:href="#L1_210" x="350" y="-350"/><use xlink:href="#L1_210" x="-350" y="0"/><use xlink:href="#L1_210" x="0" y="0"/><use xlink:href="#L1_210" x="350" y="0"/><use xlink:href="#L1_210" x="-350" y="350"/><use xlink:href="#L1_210" x="0" y="350"/><use xlink:href="#L1_210" x="350" y="350"/></pattern><rect x="0" y="0" width="100%" height="100%" fill="url(#pattern_L1_210)"/></g></svg>